<?xml version="1.0" encoding="utf-8"?>
<!-- Generator: Adobe Illustrator 23.0.1, SVG Export Plug-In . SVG Version: 6.00 Build 0)  -->
<svg version="1.1" id="Layer_1" xmlns="http://www.w3.org/2000/svg" xmlns:xlink="http://www.w3.org/1999/xlink" x="0px" y="0px"
	 viewBox="0 0 256 120" style="enable-background:new 0 0 256 120;" xml:space="preserve">
<style type="text/css">
	.st0{fill:#FF9519;}
	.st1{fill:#FF5F02;}
	.st2{opacity:0.51;fill:#FF0000;enable-background:new    ;}
	.st3{opacity:0.51;fill:#D42804;enable-background:new    ;}
	.st4{fill:#C11D04;}
	.st5{fill:#FCE1BA;}
	.st6{fill:#FFFFFF;}
</style>
<path class="st0" d="M237.8,119.5C247.5,101.8,253,81.6,253,60c0-21.8-5.6-42.2-15.5-60h-217C10.6,17.8,5,38.2,5,60
	c0,21.6,5.5,41.8,15.2,59.5H237.8z"/>
<path class="st1" d="M220.8,119.5C234,103.3,242,82.6,242,60c0-22.8-8.1-43.7-21.6-60H75.6C62.1,16.3,54,37.2,54,60
	c0,22.6,8,43.3,21.2,59.5H220.8z"/>
<g>
	<path class="st2" d="M188.9,29.9L188.9,29.9L188.9,29.9z M185.8,72.7l0.6-0.3c0.7,0.7,1.9,1.1,3.6,1.1c2.5,0,4.3-1.1,5.7-2.4
		c0.3,0.7,0.9,1.3,1.6,1.7c-2.8,0.3-5.3,1.7-7.6,3.9C189.3,75,188,73.6,185.8,72.7z M183.1,31.3L183.1,31.3L183.1,31.3z M182.5,90
		l0.1-0.3L182.5,90z M171.1,52.9c1.6-0.9,2.7-2.4,3.4-3.8c-0.2,1.6,0.2,3,1,4.1c-1,0.3-2,0.8-2.7,1.5
		C172.4,53.9,171.9,53.4,171.1,52.9z M167.4,94.6l1.7-5c1.6-0.2,2.6-1.2,3.5-3.1c0.1,0.1,0.3,0.3,0.5,0.4l-2.6,7.5h-1.3
		C168.6,94.3,168,94.4,167.4,94.6z M166.9,73.9c1-0.5,1.9-1.1,2.6-1.8c0.8,0.8,1.9,1.2,3.4,1.3c0.7,0,1.3,0,1.9-0.2
		c-0.6,0.6-1.1,1.5-1.5,2.5l-0.2,0.7c-0.7-0.7-1.6-1.1-2.8-1.6C169.2,74.4,168,74.1,166.9,73.9z M160.7,52.8
		c0.2-0.4,0.5-0.8,0.7-1.2c0.7,0.8,1.6,1.4,2.6,1.8c-0.3,0.2-0.6,0.4-0.9,0.7C162.6,53.4,161.8,52.9,160.7,52.8z M155.2,73.4
		c0.2,0,0.3,0,0.5,0c1.4,0,2.5-0.3,3.5-1c0.4,0.6,1,1.1,1.7,1.5c-2,0.6-3.3,1.9-3.8,4.1C156.6,76.3,155.9,74.8,155.2,73.4z
		 M138.5,50.4c1.4-0.4,2.7-1,3.9-1.8c-0.1,0.3-0.2,0.7-0.3,1.1c-0.1,0.7-0.1,1.4,0,2c-0.9-0.1-1.9-0.1-2.9,0.1
		C139,51.3,138.8,50.8,138.5,50.4z M137.5,40.8c0-0.1,0-0.4,0.1-0.8c0-0.3,0-0.6,0-0.9c0.7,0.6,0.6,0.6,0.5,0.8
		C137.9,40.6,137.7,40.8,137.5,40.8z M124.8,74.2c0.3-0.3,0.7-0.7,0.9-1.1c0.8,0.4,1.7,0.6,2.7,0.6c1.1,0,2.1-0.2,3-0.5
		c0.1,1,0.6,2,1.6,2.9c-0.8,0.2-1.5,0.5-2.2,1c-0.8-1.4-2.4-2.4-4.9-2.7C125.6,74.3,125.2,74.3,124.8,74.2z M124.4,91.8
		c0.8-2.5,1.5-2.9,2.6-3.7c0.3-0.2,0.5-0.4,0.8-0.6c0,0,0,0,0,0.1c0.2,0.7,0.3,1.1,0,3.2c-0.3,1.8-1.5,2.9-3.2,2.9
		C123.8,93.6,123.8,93.6,124.4,91.8z M121.8,29.9l0.1-0.1c0.7-0.8,1.1-1.6,1.1-2.5c0.6,0.6,1,1.3,1.3,2.2
		C123.4,29.5,122.6,29.6,121.8,29.9z M112.3,63.4c1-0.2,2-0.7,2.9-1.4l-0.9,2.5C113.7,64.3,113,63.9,112.3,63.4z M111.3,50.5
		c0.1-0.1,0.1-0.2,0.2-0.3c1-1.9,1.2-3.4,0.9-4.5c1.4-0.3,2.6-1.2,3.5-2.1c2.2,3.3,7.3,3.7,11.3,0.1c0,2.2,0.8,4.3,2.7,5.7
		c-1.5,0.7-3,1.9-4.6,3.5c-0.6-0.7-1.6-1.1-2.8-1.1c-1.4,0-2.6,0.3-3.7,0.8c-0.6-1.5-2-2.6-4.5-2.6
		C113.3,49.9,112.3,50.1,111.3,50.5z M102.9,72.3c1-0.7,1.8-1.9,2.3-3.5c0.8,1.2,1.7,2.2,2.5,3.1C105.8,71.7,104.2,71.7,102.9,72.3z
		 M86.5,61.1c-0.5,0,0.4-1.8,2.2-4.5c0.4-0.6,0.5-0.6,0.9-0.9c0,0,0,0,0.1,0C88.3,60,87.5,61.1,86.5,61.1z M137.9,110.7H149
		c2.8,0,4.9-1.3,5.7-3.5c2.3,2.2,6.4,1.8,8.5-1.2c0.9,1.4,2.6,2.2,4.8,2.2h7.7c1.8,0,3.3-0.5,4.5-1.5c0.6,2.8,2.3,4.8,6.3,4.8h6.8
		c14.2,0,17.9-21,7.7-23.5c5-4.7,6.8-12.6,0.7-14.7c0.9-0.3,1.6-0.8,2.3-1.4c1.4,2.2,4.5,3.2,8.4,1.9c10.5-3.3,9.4-12.9,3.2-11.2
		l-0.4,0.1c0.7-1,1.5-2.3,1.9-3.4c1.4-4.1-0.8-7-4.4-7c-2.4,0-4,0.7-5.3,1.7c-0.7-0.8-1.8-1.2-3.2-1.2c-1.6,0-3.2,0.6-4.5,1.5
		c-1.6-4.4-10.3-4.7-15.5-1.1c0.9-0.9,1.5-2.1,1.7-3.3s0-2.5-0.5-3.4c0.7,0.3,1.5,0.5,2.4,0.5c1.7,0,3.4-0.6,4.9-1.6
		c0.2,2.1,1.5,3.8,4.3,3.8c3.3,0,5.6-2.4,6.4-4.8c0.8-2.4,0.1-3.8-1.2-4.3c1.2-2.8,3.9-7.3,6.6-11.2c2.2-3.3,0.3-6.9-4.2-6.3
		c-6.1,0.8-8.1,4.7-6.7,6.7c-0.3,0.6-0.6,1.3-0.9,2c-0.9-1.6-2.6-2.4-4.7-2.4c-1,0-2.2,0.3-3.2,1c-2.2,0-3.7,0.6-5,1.1
		c-0.9-1.2-2.3-2.1-4.5-2.1c-1.5,0-2.9,0.7-4.1,1.9c-0.8,0.2-1.6,0.6-2.4,1.1c-0.7-1.6-2.3-2.6-4.3-2.6h-0.5c0.9-1.3,2-2.9,3.5-4.9
		c2-2.7,0.6-5.9-3.5-5.9c-7.4,0-9.6,5-7.4,6.9c-0.7,1.5-1.2,2.9-1.8,4.3c-0.8-0.5-1.8-0.8-3.1-0.8c-1.6,0-3.1,0.4-4.5,1
		c-0.1-3.3-2.5-6.3-7.5-6.5c-4.6-0.2-8.8,2.3-10,6.6c-0.5,1.9-0.5,3.8,0.3,5.6h-0.1c-1,0-1.9,0.2-2.7,0.6c4.8-15.1-5.9-20.6-10-20.6
		c-4.7,0-7.7,5.4-5.9,8.1c-2.3,0.5-3.7,1.5-4.3,2.6c-2-3.7-6.4-4.6-9-2.4c-3.3-1.1-9.5,1-12.1,8.7c-1.7,5.1-0.6,10.2,2.6,12.7
		c-0.9,0.5-1.6,1.2-2.1,2c-0.9-0.6-2.1-0.9-3.6-0.9H76.5c-8.7,0-12.7,3.6-14.1,7.5c-1.8,5.5,1,11.5,7,11.5c4.2,0,6.2-2.4,7-4.6
		c0.6-1.8,0.3-3.6-0.7-4.9c2.6,0.2,3.1,0.8,3.1,1.6c0,0.7-0.4,1.3-1.1,2.5c-0.9,1.5-2.1,3.5-2.2,6.2C75.2,76,89,77.7,94.1,68
		c-0.6,3.6,1.5,5.8,4.9,5.8c1.2,0,2.3-0.2,3.2-0.7c-0.8,0.6-1.4,1.5-1.7,2.8c-17.9-4.2-23.4,4.7-24.9,8.9C73.5,91,76.7,98,83.7,98.2
		c-0.6,0.7-1,1.6-1.4,2.7l-0.6,1.8c-1.4,4.2,0.9,7.4,5.2,7.4h11.7c3.2,0,5.5-1.6,6.6-4.7l0.6-1.8c1-3,0.1-5.5-2.1-6.7
		c0.7-0.7,1.3-1.7,1.7-2.7c0.6,0.3,1.3,0.5,2.2,0.5c1,0,1.9-0.2,2.7-0.6c-0.2,0.3-0.3,0.7-0.4,1c-4.6,13.8,13.3,18.7,22.6,11.3
		C132.5,108.9,134.6,110.7,137.9,110.7z"/>
	<path class="st3" d="M192.2,27.2C192.2,27.2,192.2,27.1,192.2,27.2L192.2,27.2z M189,70l0.6-0.3c0.7,0.7,1.9,1.1,3.6,1.1
		c2.5,0,4.3-1.1,5.7-2.4c0.3,0.7,0.9,1.3,1.6,1.7c-2.8,0.3-5.3,1.7-7.6,3.9C192.5,72.2,191.2,70.9,189,70z M186.4,28.6L186.4,28.6
		L186.4,28.6z M185.8,87.3l0.1-0.3L185.8,87.3z M174.4,50.2c1.6-0.9,2.7-2.4,3.4-3.8c-0.2,1.6,0.2,3,1,4.1c-1,0.3-2,0.8-2.7,1.5
		C175.7,51.2,175.1,50.6,174.4,50.2z M170.7,91.9l1.7-5c1.6-0.2,2.6-1.2,3.5-3.1c0.1,0.1,0.3,0.3,0.5,0.4l-2.6,7.5h-1.3
		C171.9,91.6,171.2,91.7,170.7,91.9z M170.2,71.2c1-0.5,1.9-1.1,2.6-1.8c0.8,0.8,1.9,1.2,3.4,1.3c0.7,0,1.3,0,1.9-0.2
		c-0.6,0.6-1.1,1.5-1.5,2.5l-0.2,0.7c-0.7-0.7-1.6-1.1-2.8-1.6C172.5,71.7,171.3,71.4,170.2,71.2z M164,50.1
		c0.2-0.4,0.5-0.8,0.7-1.2c0.7,0.8,1.6,1.4,2.6,1.8c-0.3,0.2-0.6,0.4-0.9,0.7C165.8,50.7,165,50.2,164,50.1z M158.5,70.7
		c0.2,0,0.3,0,0.5,0c1.4,0,2.5-0.3,3.5-1c0.4,0.6,1,1.1,1.7,1.5c-2,0.6-3.3,1.9-3.8,4.1C159.8,73.6,159.2,72.1,158.5,70.7z
		 M141.8,47.7c1.4-0.4,2.7-1,3.9-1.8c-0.1,0.3-0.2,0.7-0.3,1.1c-0.1,0.7-0.1,1.4,0,2c-0.9-0.1-1.9-0.1-2.9,0.1
		C142.2,48.5,142,48.1,141.8,47.7z M140.7,38.1c0-0.1,0-0.4,0.1-0.8c0-0.3,0-0.6,0-0.9c0.7,0.6,0.6,0.6,0.5,0.8
		C141.2,37.8,141,38,140.7,38.1z M128.1,71.5c0.3-0.3,0.7-0.7,0.9-1.1c0.8,0.4,1.7,0.6,2.7,0.6c1.1,0,2.1-0.2,3-0.5
		c0.1,1,0.6,2,1.6,2.9c-0.8,0.2-1.5,0.5-2.2,1c-0.8-1.4-2.4-2.4-4.9-2.7C128.8,71.6,128.5,71.5,128.1,71.5z M127.7,89.1
		c0.8-2.5,1.5-2.9,2.6-3.7c0.3-0.2,0.5-0.4,0.8-0.6c0,0,0,0,0,0.1c0.2,0.7,0.3,1.1,0,3.2c-0.3,1.8-1.5,2.9-3.2,2.9
		C127.1,90.9,127.1,90.9,127.7,89.1z M125.1,27.2l0.1-0.1c0.7-0.8,1.1-1.6,1.1-2.5c0.6,0.6,1,1.3,1.3,2.2
		C126.7,26.8,125.9,26.9,125.1,27.2z M115.6,60.7c1-0.2,2-0.7,2.9-1.4l-0.9,2.5C117,61.5,116.3,61.1,115.6,60.7z M114.5,47.8
		c0.1-0.1,0.1-0.2,0.2-0.3c1-1.9,1.2-3.4,0.9-4.5c1.4-0.3,2.6-1.2,3.5-2.1c2.2,3.3,7.3,3.7,11.3,0.1c0,2.2,0.8,4.3,2.7,5.7
		c-1.5,0.7-3,1.9-4.6,3.5c-0.6-0.7-1.6-1.1-2.8-1.1c-1.4,0-2.6,0.3-3.7,0.8c-0.6-1.5-2-2.6-4.5-2.6
		C116.6,47.2,115.6,47.4,114.5,47.8z M106.2,69.6c1-0.7,1.8-1.9,2.3-3.5c0.8,1.2,1.7,2.2,2.5,3.1C109.1,68.9,107.4,69,106.2,69.6z
		 M89.7,58.3c-0.5,0,0.4-1.8,2.2-4.5c0.4-0.6,0.5-0.6,0.9-0.9c0,0,0,0,0.1,0C91.5,57.3,90.8,58.3,89.7,58.3z M141.2,108h11.1
		c2.8,0,4.9-1.3,5.7-3.5c2.3,2.2,6.4,1.8,8.5-1.2c0.9,1.4,2.6,2.2,4.8,2.2h7.7c1.8,0,3.3-0.5,4.5-1.5c0.6,2.8,2.3,4.8,6.3,4.8h6.8
		c14.2,0,17.9-21,7.7-23.5c5-4.7,6.8-12.6,0.7-14.7c0.9-0.3,1.6-0.8,2.3-1.4c1.4,2.2,4.5,3.2,8.4,1.9c10.5-3.3,9.4-12.9,3.2-11.2
		l-0.4,0.1c0.7-1,1.5-2.3,1.9-3.4c1.4-4.1-0.8-7-4.4-7c-2.4,0-4,0.7-5.3,1.7c-0.7-0.8-1.8-1.2-3.2-1.2c-1.6,0-3.2,0.6-4.5,1.5
		c-1.6-4.4-10.3-4.7-15.5-1.1c0.9-0.9,1.5-2.1,1.7-3.3s0-2.5-0.5-3.4c0.7,0.3,1.5,0.5,2.4,0.5c1.7,0,3.4-0.6,4.9-1.6
		c0.2,2.1,1.5,3.8,4.3,3.8c3.3,0,5.6-2.4,6.4-4.8c0.8-2.4,0.1-3.8-1.2-4.3c1.2-2.8,3.9-7.3,6.6-11.2c2.2-3.3,0.3-6.9-4.2-6.3
		c-6.1,0.8-8.1,4.7-6.7,6.7c-0.3,0.6-0.6,1.3-0.9,2c-0.9-1.6-2.6-2.4-4.7-2.4c-1,0-2.2,0.3-3.2,1c-2.2,0-3.7,0.6-5,1.1
		c-0.9-1.2-2.3-2.1-4.5-2.1c-1.5,0-2.9,0.7-4.1,1.9c-0.8,0.2-1.6,0.6-2.4,1.1c-0.7-1.6-2.3-2.6-4.3-2.6h-0.5c0.9-1.3,2-2.9,3.5-4.9
		c2-2.7,0.6-5.9-3.5-5.9c-7.4,0-9.6,5-7.4,6.9c-0.7,1.5-1.2,2.9-1.8,4.3c-0.8-0.5-1.8-0.8-3.1-0.8c-1.6,0-3.1,0.4-4.5,1
		c-0.1-3.3-2.5-6.3-7.5-6.5c-4.6-0.2-8.8,2.3-10,6.6c-0.5,1.9-0.5,3.8,0.3,5.6h-0.1c-1,0-1.9,0.2-2.7,0.6c4.8-15.1-5.9-20.6-10-20.6
		c-4.7,0-7.7,5.4-5.9,8.1c-2.3,0.5-3.7,1.5-4.3,2.6c-2-3.7-6.4-4.6-9-2.4c-3.3-1.1-9.5,1-12.1,8.7c-1.7,5.1-0.6,10.2,2.6,12.7
		c-0.9,0.5-1.6,1.2-2.1,2c-0.9-0.6-2.1-0.9-3.6-0.9H79.8c-8.7,0-12.7,3.6-14.1,7.5c-1.8,5.5,1,11.5,7,11.5c4.2,0,6.2-2.4,7-4.6
		c0.6-1.8,0.3-3.6-0.7-4.9c2.6,0.2,3.1,0.8,3.1,1.6c0,0.7-0.4,1.3-1.1,2.5c-0.9,1.5-2.1,3.5-2.2,6.2c-0.3,9.8,13.5,11.5,18.6,1.8
		c-0.6,3.6,1.5,5.8,4.9,5.8c1.2,0,2.3-0.2,3.2-0.7c-0.8,0.6-1.4,1.5-1.7,2.8c-17.9-4.2-23.4,4.7-24.9,8.9C76.8,88.3,80,95.3,87,95.5
		c-0.6,0.7-1,1.6-1.4,2.7L85,100c-1.4,4.2,0.9,7.4,5.2,7.4h11.7c3.2,0,5.5-1.6,6.6-4.7l0.6-1.8c1-3,0.1-5.5-2.1-6.7
		c0.7-0.7,1.3-1.7,1.7-2.7c0.6,0.3,1.3,0.5,2.2,0.5c1,0,1.9-0.2,2.7-0.6c-0.2,0.3-0.3,0.7-0.4,1c-4.6,13.8,13.3,18.7,22.6,11.3
		C135.8,106.2,137.9,108,141.2,108z"/>
	<path class="st4" d="M195.4,24.4C195.5,24.4,195.5,24.4,195.4,24.4L195.4,24.4z M192.3,67.3l0.6-0.3c0.7,0.7,1.9,1.1,3.6,1.1
		c2.5,0,4.3-1.1,5.7-2.4c0.3,0.7,0.9,1.3,1.6,1.7c-2.8,0.3-5.3,1.7-7.6,3.9C195.8,69.5,194.5,68.2,192.3,67.3z M189.7,25.8
		L189.7,25.8L189.7,25.8z M189.1,84.5l0.1-0.3L189.1,84.5z M177.7,47.5c1.6-0.9,2.7-2.4,3.4-3.8c-0.2,1.6,0.2,3,1,4.1
		c-1,0.3-2,0.8-2.7,1.5C179,48.5,178.4,47.9,177.7,47.5z M173.9,89.1l1.7-5c1.6-0.2,2.6-1.2,3.5-3.1c0.1,0.1,0.3,0.3,0.5,0.4
		l-2.6,7.5h-1.3C175.2,88.9,174.5,89,173.9,89.1z M173.4,68.4c1-0.5,1.9-1.1,2.6-1.8c0.8,0.8,1.9,1.2,3.4,1.3c0.7,0,1.3,0,1.9-0.2
		c-0.6,0.6-1.1,1.5-1.5,2.5l-0.2,0.7c-0.7-0.7-1.6-1.1-2.8-1.6C175.7,68.9,174.6,68.6,173.4,68.4z M167.3,47.3
		c0.2-0.4,0.5-0.8,0.7-1.2c0.7,0.8,1.6,1.4,2.6,1.8c-0.3,0.2-0.6,0.4-0.9,0.7C169.1,47.9,168.3,47.5,167.3,47.3z M161.8,68
		c0.2,0,0.3,0,0.5,0c1.4,0,2.5-0.3,3.5-1c0.4,0.6,1,1.1,1.7,1.5c-2,0.6-3.3,1.9-3.8,4.1C163.1,70.9,162.5,69.3,161.8,68z M145,45
		c1.4-0.4,2.7-1,3.9-1.8c-0.1,0.3-0.2,0.7-0.3,1.1c-0.1,0.7-0.1,1.4,0,2c-0.9-0.1-1.9-0.1-2.9,0.1C145.5,45.8,145.3,45.4,145,45z
		 M144,35.3c0-0.1,0-0.4,0.1-0.8c0-0.3,0-0.6,0-0.9c0.7,0.6,0.6,0.6,0.5,0.8C144.4,35.1,144.3,35.3,144,35.3z M131.4,68.8
		c0.3-0.3,0.7-0.7,0.9-1.1c0.8,0.4,1.7,0.6,2.7,0.6c1.1,0,2.1-0.2,3-0.5c0.1,1,0.6,2,1.6,2.9c-0.8,0.2-1.5,0.5-2.2,1
		c-0.8-1.4-2.4-2.4-4.9-2.7C132.1,68.8,131.7,68.8,131.4,68.8z M131,86.3c0.8-2.5,1.5-2.9,2.6-3.7c0.3-0.2,0.5-0.4,0.8-0.6
		c0,0,0,0,0,0.1c0.2,0.7,0.3,1.1,0,3.2c-0.3,1.8-1.5,2.9-3.2,2.9C130.4,88.2,130.4,88.2,131,86.3z M128.3,24.4l0.1-0.1
		c0.7-0.8,1.1-1.6,1.1-2.5c0.6,0.6,1,1.3,1.3,2.2C130,24,129.1,24.2,128.3,24.4z M118.9,58c1-0.2,2-0.7,2.9-1.4l-0.9,2.5
		C120.3,58.8,119.6,58.4,118.9,58z M117.8,45c0.1-0.1,0.1-0.2,0.2-0.3c1-1.9,1.2-3.4,0.9-4.5c1.4-0.3,2.6-1.2,3.5-2.1
		c2.2,3.3,7.3,3.7,11.3,0.1c0,2.2,0.8,4.3,2.7,5.7c-1.5,0.7-3,1.9-4.6,3.5c-0.6-0.7-1.6-1.1-2.8-1.1c-1.4,0-2.6,0.3-3.7,0.8
		c-0.6-1.5-2-2.6-4.5-2.6C119.9,44.5,118.8,44.7,117.8,45z M109.4,66.9c1-0.7,1.8-1.9,2.3-3.5c0.8,1.2,1.7,2.2,2.5,3.1
		C112.3,66.2,110.7,66.2,109.4,66.9z M93,55.6c-0.5,0,0.4-1.8,2.2-4.5c0.4-0.6,0.5-0.6,0.9-0.9c0,0,0,0,0.1,0
		C94.8,54.5,94.1,55.6,93,55.6z M144.4,105.2h11.1c2.8,0,4.9-1.3,5.7-3.5c2.3,2.2,6.4,1.8,8.5-1.2c0.9,1.4,2.6,2.2,4.8,2.2h7.7
		c1.8,0,3.3-0.5,4.5-1.5c0.6,2.8,2.3,4.8,6.3,4.8h6.8c14.2,0,17.9-21,7.7-23.5c5-4.7,6.8-12.6,0.7-14.7c0.9-0.3,1.6-0.8,2.3-1.4
		c1.4,2.2,4.5,3.2,8.4,1.9c10.5-3.3,9.4-12.9,3.2-11.2l-0.4,0.1c0.7-1,1.5-2.3,1.9-3.4c1.4-4.1-0.8-7-4.4-7c-2.4,0-4,0.7-5.3,1.7
		c-0.7-0.8-1.8-1.2-3.2-1.2c-1.6,0-3.2,0.6-4.5,1.5c-1.6-4.4-10.3-4.7-15.5-1.1c0.9-0.9,1.5-2.1,1.7-3.3s0-2.5-0.5-3.4
		c0.7,0.3,1.5,0.5,2.4,0.5c1.7,0,3.4-0.6,4.9-1.6c0.2,2.1,1.5,3.8,4.3,3.8c3.3,0,5.6-2.4,6.4-4.8c0.8-2.4,0.1-3.8-1.2-4.3
		c1.2-2.8,3.9-7.3,6.6-11.2c2.2-3.3,0.3-6.9-4.2-6.3c-6.1,0.8-8.1,4.7-6.7,6.7c-0.3,0.6-0.6,1.3-0.9,2c-0.9-1.6-2.6-2.4-4.7-2.4
		c-1,0-2.2,0.3-3.2,1c-2.2,0-3.7,0.6-5,1.1c-0.9-1.2-2.3-2.1-4.5-2.1c-1.5,0-2.9,0.7-4.1,1.9c-0.8,0.2-1.6,0.6-2.4,1.1
		c-0.7-1.6-2.3-2.6-4.3-2.6H175c0.9-1.3,2-2.9,3.5-4.9c2-2.7,0.6-5.9-3.5-5.9c-7.4,0-9.6,5-7.4,6.9c-0.7,1.5-1.2,2.9-1.8,4.3
		c-0.8-0.5-1.8-0.8-3.1-0.8c-1.6,0-3.1,0.4-4.5,1c-0.1-3.3-2.5-6.3-7.5-6.5c-4.6-0.2-8.8,2.3-10,6.6c-0.5,1.9-0.5,3.8,0.3,5.6h-0.1
		c-1,0-1.9,0.2-2.7,0.6c4.8-15.1-5.9-20.6-10-20.6c-4.7,0-7.7,5.4-5.9,8.1c-2.3,0.5-3.7,1.5-4.3,2.6c-2-3.7-6.4-4.6-9-2.4
		c-3.3-1.1-9.5,1-12.1,8.7c-1.9,4.9-0.7,10,2.5,12.5c-0.9,0.5-1.6,1.2-2.1,2c-0.9-0.6-2.1-0.9-3.6-0.9H83.1
		c-8.7,0-12.7,3.6-14.1,7.5c-1.8,5.5,1,11.5,7,11.5c4.2,0,6.2-2.4,7-4.6c0.6-1.8,0.3-3.6-0.7-4.9c2.6,0.2,3.1,0.8,3.1,1.6
		c0,0.7-0.4,1.3-1.1,2.5c-0.9,1.5-2.1,3.5-2.2,6.2c-0.3,9.8,13.5,11.5,18.6,1.8c-0.6,3.6,1.5,5.8,4.9,5.8c1.2,0,2.3-0.2,3.2-0.7
		c-0.8,0.6-1.4,1.5-1.7,2.8c-17.9-4.2-23.4,4.7-24.9,8.9c-2.1,6.2,1.1,13.2,8.1,13.4c-0.6,0.7-1,1.6-1.4,2.7L88.2,97
		c-1.4,4.2,0.9,7.4,5.2,7.4h11.7c3.2,0,5.5-1.6,6.6-4.7l0.6-1.8c1-3,0.1-5.5-2.1-6.7c0.7-0.7,1.3-1.7,1.7-2.7
		c0.6,0.3,1.3,0.5,2.2,0.5c1,0,1.9-0.2,2.7-0.6c-0.2,0.3-0.3,0.7-0.4,1c-4.6,13.8,13.3,18.7,22.6,11.3
		C139.1,103.4,141.1,105.2,144.4,105.2z"/>
	<g>
		<g>
			<path class="st5" d="M215.3,65.5c-1.4,0-2.4-0.4-3-1.2c-0.6-0.8-0.6-1.9-0.2-3.2c0.5-1.4,1.2-2.3,1.8-3.2c0.5-0.7,0.9-1.3,1.2-2
				c0.3-0.8,0.3-1.3,0-1.6c-0.2-0.3-0.7-0.4-1-0.4c-1.8,0-3.7,1.7-4.4,3.8c-0.2,0.6,0.1,0.9,0.4,1.2l0.1,0.2
				c0.3,0.5,0.2,1.4-0.2,2.6c-0.5,1.3-1.9,3.1-3.6,3.1c-1,0-1.7-0.3-2.1-0.8c-0.4-0.6-0.4-1.4-0.1-2.4l2.3-6.7c0.1-0.4,0.1-0.7,0-1
				c-0.2-0.3-0.5-0.5-0.9-0.6s-0.4-0.3-0.4-0.6c0.2-1.2,3-3.5,5.3-3.5c0.7,0,1.3,0.2,1.4,0.5c0.2,0.4,0,1-0.2,1.4
				c-0.4,0.7-0.5,1.2-0.3,1.5c0.1,0.2,0.3,0.3,0.5,0.3c0.4,0,0.9-0.4,1.2-0.7c1.9-2.3,3-3.4,5.9-3.4c0.9,0,1.6,0.3,2,0.8
				c0.5,0.7,0.5,1.7,0.1,2.9c-0.4,1.1-1.3,2.4-2.1,3.5c-0.6,0.9-1.1,1.5-1.3,2c-0.2,0.4-0.1,0.7,0.1,0.9c0.2,0.3,0.7,0.5,1.4,0.5
				c0.8,0,2-0.2,3.4-0.6c0.2-0.1,0.5-0.1,0.7-0.1c0.6,0,0.9,0.3,1,0.8c0.2,1.5-1.8,4.4-6.2,5.8C216.9,65.4,216.1,65.5,215.3,65.5
				L215.3,65.5z"/>
			<path class="st6" d="M218.8,48.9c0.8,0,1.4,0.2,1.7,0.7c0.4,0.6,0.4,1.5,0,2.6c-0.3,1-1.3,2.4-2.1,3.4c-0.6,0.9-1.1,1.6-1.3,2.1
				c-0.2,0.6-0.1,1,0.1,1.2c0.3,0.4,0.8,0.6,1.7,0.6c0.8,0,2-0.2,3.5-0.6c0.2-0.1,0.4-0.1,0.6-0.1c0.4,0,0.6,0.2,0.6,0.5
				c0.2,1.2-1.4,4-5.9,5.4c-0.9,0.3-1.7,0.4-2.4,0.4c-1.3,0-2.2-0.4-2.7-1.1c-0.5-0.7-0.6-1.7-0.2-2.9c0.5-1.3,1.1-2.3,1.7-3.1
				c0.5-0.7,1-1.4,1.2-2.1c0.2-0.6,0.4-1.4,0-1.9s-1-0.5-1.3-0.5c-1.9,0-4,1.8-4.8,4.1c-0.2,0.8,0.2,1.2,0.4,1.5l0.1,0.1
				c0.2,0.3,0.2,1.1-0.3,2.3c-0.4,1.2-1.7,2.8-3.3,2.8c-0.6,0-1.4-0.1-1.8-0.7c-0.3-0.5-0.3-1.2,0-2.1l2.3-6.7
				c0.2-0.5,0.1-0.9,0-1.2c-0.2-0.4-0.6-0.6-1.1-0.8c-0.1,0-0.2-0.1-0.2-0.1l0,0c0,0,0-0.3,0.3-0.7c0.8-1.3,3-2.7,4.7-2.7
				c0.7,0,1.1,0.2,1.2,0.3c0.1,0.2,0,0.6-0.2,1.1c-0.3,0.6-0.6,1.3-0.3,1.8c0.2,0.3,0.4,0.4,0.8,0.4c0.6,0,1.2-0.6,1.5-0.8
				C215.2,49.9,216.2,48.9,218.8,48.9 M218.8,48.3c-2.9,0-4.1,1.2-6.1,3.6c-0.3,0.4-0.7,0.6-0.9,0.6c-0.3,0-0.3-0.3,0.1-1.2
				c0.9-1.7,0.1-2.5-1.5-2.5c-3.3,0-7.3,4.1-5,4.8c0.7,0.2,0.9,0.5,0.7,1.2l-2.3,6.7c-0.8,2.3,0.2,3.7,2.5,3.7c1.9,0,3.5-1.9,4-3.3
				c0.5-1.4,0.5-2.4,0.2-2.9c-0.3-0.4-0.6-0.6-0.4-1.1c0.7-2.1,2.5-3.6,4.1-3.6c0.6,0,1.1,0.2,0.6,1.5c-0.5,1.5-2.1,2.7-2.9,5.2
				c-1,3,0.6,4.9,3.6,4.9c0.8,0,1.7-0.1,2.6-0.4c6.6-2.1,7.8-7.2,5.1-7.2c-0.2,0-0.5,0-0.7,0.1c-1.5,0.4-2.6,0.6-3.3,0.6
				c-1.1,0-1.3-0.4-1.1-0.9c0.4-1,2.8-3.6,3.4-5.5C222,50.1,221.2,48.3,218.8,48.3L218.8,48.3z"/>
		</g>
		<g>
			<path class="st5" d="M194.1,38.4c-1.3,0-2.4-0.5-3.1-1.5c-0.9-1.2-1-3-0.4-4.9c0.2-0.5,0.4-1,0.8-1.5c0.3-0.4,0.2-0.8,0.1-0.9
				c-0.1-0.3-0.5-0.4-0.9-0.4c-0.7,0-1.4,0.4-1.5,1.2c-0.1,0.6-0.2,1.1-0.3,1.5c-1,3.8-4.1,6.6-7.2,6.6c-1.3,0-2.4-0.5-3.1-1.5
				c-0.9-1.2-1-3-0.3-4.9c0.9-2.6,2.7-4.5,4.6-4.8c0.5-0.1,0.8-0.3,1.1-0.7c0.6-0.7,1.4-1.1,2.2-1.1c1.4,0,2.4,0.6,2.9,1.7
				c0.2,0.5,0.5,0.7,0.9,0.7c0.2,0,0.3,0,0.5-0.1c0.3-0.1,0.5-0.2,0.8-0.3c1.3-0.6,2.4-1,4.3-1h0.2c0.4,0,0.8,0,1.2-0.4
				c0.5-0.4,1.2-0.6,1.8-0.6c1.1,0,1.9,0.4,2.5,1c0.8,1.1,0.9,3,0.3,5.4C200.3,35.6,197.3,38.4,194.1,38.4z M195.4,29.8
				c-0.7,0-1.2,0.6-1.6,1.7c-0.4,1.1-0.4,1.9,0,2.5c0.2,0.3,0.6,0.6,1.4,0.6c1.8,0,3.1-2.1,3.3-4c0.1-0.5-0.1-0.7-0.2-0.9
				c-0.2-0.2-0.4-0.3-0.6-0.3c-0.3,0-0.6,0.1-0.7,0.4c-0.1,0.1-0.3,0.2-0.6,0.2c-0.2,0-0.4,0-0.5-0.1
				C195.7,29.8,195.6,29.8,195.4,29.8z M182.8,29.7c-0.7,0-1.1,0.9-1.4,1.7c-0.4,1.1-0.4,1.9,0,2.5c0.2,0.3,0.6,0.6,1.3,0.6
				c1.4,0,2.6-1.1,3.1-2.7c0.1-0.3,0.1-0.7-0.1-1c-0.1-0.2-0.3-0.3-0.5-0.3h-0.1c-0.3,0.1-0.5,0.1-0.7,0.1c-0.4,0-0.6-0.1-0.8-0.4
				C183.3,29.9,183,29.7,182.8,29.7z"/>
			<path class="st6" d="M198.6,25.7c1,0,1.7,0.3,2.2,0.9c0.8,1,0.8,2.8,0.2,5.1c-1,3.7-3.9,6.3-6.9,6.3c-1.2,0-2.2-0.5-2.8-1.3
				c-0.8-1.1-0.9-2.8-0.3-4.6c0.2-0.5,0.4-0.9,0.7-1.4c0.4-0.6,0.3-1.1,0.1-1.3c-0.2-0.4-0.6-0.6-1.2-0.6c-0.8,0-1.8,0.5-1.9,1.4
				c-0.1,0.6-0.2,1-0.3,1.5c-1,3.7-3.9,6.3-6.9,6.3c-1.2,0-2.2-0.5-2.8-1.3c-0.8-1.1-0.9-2.8-0.3-4.6c0.8-2.4,2.6-4.3,4.3-4.6
				c0.6-0.1,0.9-0.3,1.3-0.8c0.5-0.6,1.2-1,2-1c1.3,0,2.1,0.5,2.6,1.5c0.3,0.8,0.9,0.9,1.2,0.9c0.2,0,0.4,0,0.6-0.1
				c0.3-0.1,0.5-0.2,0.8-0.3c1.3-0.6,2.3-1,4.1-1h0.2c0.4,0,0.9,0,1.4-0.5C197.5,25.9,198.1,25.7,198.6,25.7 M196.3,29.6
				c-0.2,0-0.3,0-0.4-0.1c-0.2-0.1-0.4-0.1-0.6-0.1c-0.6,0-1.4,0.3-1.9,1.9c-0.4,1.2-0.4,2.1,0,2.8c0.2,0.3,0.7,0.7,1.6,0.7
				c2,0,3.4-2.2,3.7-4.3c0.1-0.6-0.1-1-0.3-1.2s-0.5-0.4-0.9-0.4s-0.8,0.2-1,0.5C196.6,29.5,196.5,29.6,196.3,29.6 M182.7,34.8
				c1.5,0,2.8-1.2,3.4-2.9c0.1-0.4,0.2-0.9-0.1-1.4c-0.2-0.3-0.5-0.4-0.8-0.4c-0.1,0-0.1,0-0.2,0c-0.3,0-0.5,0.1-0.7,0.1
				c-0.3,0-0.4-0.1-0.5-0.2c-0.3-0.4-0.7-0.6-1.1-0.6c-0.9,0-1.4,1-1.7,2c-0.4,1.2-0.4,2.1,0,2.8C181.3,34.4,181.8,34.8,182.7,34.8
				 M198.6,25c-0.8,0-1.5,0.3-2.1,0.7c-0.3,0.3-0.6,0.3-1,0.3c-0.1,0-0.1,0-0.2,0c-2.3,0-3.5,0.7-5.2,1.4c-0.1,0.1-0.3,0.1-0.4,0.1
				c-0.3,0-0.5-0.2-0.6-0.5c-0.5-1.2-1.5-1.9-3.2-1.9c-1,0-1.9,0.5-2.5,1.3c-0.3,0.3-0.5,0.5-0.9,0.5c-2,0.4-3.9,2.4-4.8,5
				c-1.3,3.8,0.4,6.8,3.7,6.8s6.5-2.9,7.5-6.8c0.2-0.5,0.3-1.1,0.3-1.5c0.1-0.6,0.7-0.9,1.2-0.9s0.8,0.3,0.4,0.8
				c-0.3,0.5-0.6,1-0.8,1.6c-1.3,3.8,0.5,6.8,3.8,6.8s6.4-2.9,7.5-6.8C202.8,27.9,201.9,25,198.6,25L198.6,25z M196.3,30.3
				c0.4,0,0.7-0.1,0.9-0.4c0.1-0.1,0.2-0.2,0.4-0.2c0.3,0,0.6,0.2,0.5,0.8c-0.2,1.6-1.3,3.7-3,3.7c-1.2,0-1.6-0.9-1-2.6
				c0.2-0.7,0.6-1.4,1.3-1.4c0.1,0,0.2,0,0.3,0.1C195.9,30.2,196.1,30.3,196.3,30.3L196.3,30.3z M182.7,34.1c-1.2,0-1.6-0.9-1-2.6
				c0.2-0.6,0.6-1.5,1.1-1.5c0.2,0,0.3,0.1,0.5,0.3c0.3,0.4,0.6,0.5,1.1,0.5c0.2,0,0.5,0,0.8-0.1c0,0,0,0,0.1,0
				c0.3,0,0.4,0.5,0.3,0.9C185,33.1,183.9,34.1,182.7,34.1L182.7,34.1z"/>
		</g>
		<g>
			<path class="st5" d="M192.9,102.1c-1.5,0-2.6-0.4-3.2-1.2c-1.4-1.7-0.9-4.9-0.5-7.8c0.4-2.4,0.7-4.4-0.1-5.4
				c-0.3-0.3-0.7-0.5-1.2-0.5c-1.7,0-3.2,0.9-3.4,2c-0.1,0.9,0.5,1.2,1,1.4c0.8,0.4,1.7,0.8,1.1,3.4l-0.3,1.7
				c-0.4,2.1-1.8,3.2-4,3.2h-7.6c-1.3,0-2.2-0.4-2.7-1c-0.5-0.7-0.6-1.7-0.2-3l0.6-1.8c0.6-2,1.8-3,3.6-3h1.7c0.8,0,1.4-0.4,1.7-1.2
				l3-8.6c0.3-1-0.3-1.5-1-1.8c-1.6-0.7-1.1-2.7-0.7-3.9l1.5-4.5c0.6-1.8,1.7-2.6,3.8-2.6c0.2,0,0.5,0,0.7,0c1.6,0.1,3,0.4,4.2,0.9
				c1.5,0.5,2.3,1.2,2.6,2c0.3,0.7,0.1,1.6-0.4,2.6l-1.6,3c-1.2,2.3-1.9,2.7-2.2,2.7c-0.8,0-1.4,0.4-1.7,1.2l-1,2.8
				c-0.2,0.7-0.3,1.2-0.1,1.5c0.1,0.2,0.3,0.3,0.5,0.3c0.7,0,1.6-0.8,2.1-1.6c5.4-8.2,9.7-14,15.3-14c3,0,4.6,1.3,4.6,3.7
				c0,4.2-4.9,9.9-9.9,9.9c-1.4,0-1.4-0.7-1.5-1.5c-0.1-0.6-0.1-1.4-1-1.4c-1,0-2.9,0.9-3.6,2.4c-0.2,0.4-0.2,0.8-0.1,1.1
				c0.2,0.5,0.9,0.8,1.5,0.9c1.2,0.3,1.3,1.6,1.5,3.6c0.2,3,0.5,6.7,6.5,6.7c2.8,0,4.5-2.4,4.5-4.1c0-0.4-0.1-0.8-0.3-1
				c-0.2-0.3-0.6-0.4-1-0.4c-0.9,0-1.2,0.7-1.5,1.3c-0.4,0.8-0.7,1.6-2.4,1.6c-2.3,0-3.4-1.6-3.4-3.2c0-1.2,0.5-2.4,1.5-3.2
				c1.1-1,2.8-1.6,4.8-1.6c4,0,5.5,3.4,5.5,6.7c0,2.8-1.1,5.8-2.8,8c-1.4,1.8-4,4-8.1,4h-6.3L192.9,102.1L192.9,102.1z"/>
			<path class="st6" d="M185.9,67.9c0.2,0,0.5,0,0.7,0c1.6,0.1,3,0.4,4.2,0.8c1.4,0.5,2.1,1.1,2.4,1.8c0.2,0.6,0.1,1.4-0.4,2.3
				l-1.6,3c-1.3,2.4-1.8,2.5-1.9,2.5c-1,0-1.7,0.5-2,1.4l-1,2.8c-0.2,0.5-0.4,1.3,0,1.8c0.2,0.3,0.5,0.4,0.8,0.4c0.9,0,2-1,2.4-1.7
				c5.4-8.1,9.6-13.9,15-13.9c2.8,0,4.3,1.2,4.3,3.4c0,1.9-1.1,4.3-2.9,6.2c-2,2.1-4.4,3.3-6.6,3.3c-1.1,0-1.1-0.4-1.2-1.2
				c0-0.5-0.1-1.7-1.4-1.7c-1.1,0-3.2,1-3.9,2.5c-0.2,0.5-0.3,1-0.1,1.4c0.3,0.6,1,0.9,1.7,1.1c1,0.3,1.1,1.4,1.3,3.3
				c0.2,2.9,0.6,7,6.8,7c3,0,4.9-2.6,4.9-4.5c0-0.5-0.1-0.9-0.4-1.2c-0.3-0.4-0.7-0.6-1.2-0.6c-1.1,0-1.5,0.9-1.8,1.5
				c-0.4,0.8-0.6,1.4-2,1.4c-1,0-1.7-0.3-2.3-0.9c-0.5-0.5-0.8-1.2-0.8-2c0-2.2,2-4.5,6-4.5c3.8,0,5.1,3.3,5.1,6.3
				c0,4.7-3.4,11.6-10.6,11.6h-6.7c-1.4,0-2.4-0.3-3-1.1c-1.3-1.6-0.8-4.7-0.4-7.5c0.4-2.6,0.7-4.6-0.2-5.6
				c-0.2-0.3-0.7-0.6-1.5-0.6c-1.9,0-3.6,1-3.7,2.2c-0.2,1.2,0.7,1.5,1.2,1.8c0.7,0.3,1.4,0.7,1,3l-0.3,1.7c-0.4,2-1.6,2.9-3.7,2.9
				h-7.6c-0.8,0-1.9-0.2-2.5-0.9c-0.6-0.8-0.4-1.9-0.1-2.7l0.6-1.8c0.6-1.9,1.6-2.7,3.3-2.7h1.7c1,0,1.7-0.5,2-1.4l3-8.6
				c0.5-1.5-0.7-2-1.2-2.2c-1.3-0.6-0.9-2.4-0.6-3.5l1.5-4.5C183,68.6,184,67.9,185.9,67.9L185.9,67.9 M185.9,67.2
				c-2,0-3.4,0.7-4.1,2.8l-1.5,4.5c-0.8,2.2-0.4,3.7,0.9,4.3c0.7,0.3,1,0.6,0.8,1.4l-3,8.6c-0.2,0.6-0.7,1-1.4,1h-1.7
				c-1.8,0-3.2,1-3.9,3.2l-0.6,1.8c-0.9,2.8,0.3,4.5,3.2,4.5h7.6c2.4,0,3.9-1.2,4.4-3.5l0.3-1.7c1-4.7-2.4-3.1-2.2-4.9
				c0.1-0.9,1.5-1.7,3.1-1.7c4.6,0-4.3,14.9,5,14.9h6.7c12.3,0,15.1-19.3,5.5-19.3c-8.1,0-8.4,8.7-2.9,8.7c3.1,0,2.2-2.9,3.8-2.9
				c2,0,0.6,4.9-3.3,4.9c-9.2,0-4.1-9.2-7.9-10.3c-1-0.3-1.7-0.6-1.2-1.6c0.5-1.2,2.3-2.2,3.2-2.2c1.4,0-0.3,2.9,2.5,2.9
				c8.2,0,15.3-14.3,5.2-14.3c-5.8,0-10.1,5.9-15.6,14.2c-0.5,0.7-1.4,1.4-1.9,1.4c-0.3,0-0.5-0.3-0.2-1.3l1-2.8
				c0.2-0.6,0.6-0.9,1.3-0.9c0.6,0,1.4-0.9,2.5-2.8l1.6-3c1.3-2.6,0.4-4-2.4-5.1c-1.2-0.4-2.6-0.8-4.3-0.9
				C186.4,67.2,186.1,67.2,185.9,67.2L185.9,67.2z"/>
		</g>
		<g>
			<path class="st5" d="M162.2,47.3c-0.9,0-1.6-0.3-2.1-0.9c-0.5-0.6-0.7-1.4-0.5-2.2c0.3-1.8,2-3.3,3.8-3.3c0.9,0,1.6,0.3,2.1,0.9
				c0.5,0.6,0.7,1.4,0.6,2.3C165.8,45.8,164,47.3,162.2,47.3z"/>
			<path class="st6" d="M163.4,41.1c0.8,0,1.4,0.3,1.9,0.8c0.4,0.5,0.6,1.2,0.5,2c-0.3,1.7-1.9,3-3.5,3c-0.8,0-1.4-0.3-1.9-0.8
				c-0.4-0.5-0.6-1.2-0.4-2C160.2,42.5,161.8,41.1,163.4,41.1 M163.4,40.4c-2,0-3.9,1.6-4.2,3.6c-0.4,2,1,3.6,3,3.6s3.9-1.6,4.2-3.6
				C166.8,42,165.4,40.4,163.4,40.4L163.4,40.4z"/>
		</g>
		<g>
			<path class="st5" d="M186,46.6c-0.8,0-1.6-0.3-2.1-0.9c-0.5-0.6-0.7-1.4-0.6-2.3c0.3-1.9,2-3.3,3.9-3.3c0.8,0,1.6,0.3,2.1,0.9
				c0.5,0.6,0.7,1.4,0.6,2.3C189.6,45.2,187.8,46.6,186,46.6z"/>
			<path class="st6" d="M187.2,40.5c0.7,0,1.4,0.3,1.8,0.8c0.4,0.5,0.6,1.2,0.5,2c-0.3,1.7-1.9,3-3.6,3c-0.7,0-1.4-0.3-1.8-0.8
				c-0.4-0.5-0.6-1.2-0.5-2C184,41.8,185.5,40.5,187.2,40.5 M187.2,39.8c-2,0-3.9,1.6-4.2,3.6s1,3.6,3,3.6s3.9-1.6,4.2-3.6
				C190.6,41.4,189.2,39.8,187.2,39.8L187.2,39.8z"/>
		</g>
		<g>
			<path class="st5" d="M203.2,40.5c-0.7,0-1.2-0.2-1.5-0.6c-0.4-0.5-0.5-1.5-0.2-2.7c0.6-2.8,3.6-10.1,5.3-13.9
				c0.1-0.2,0.2-0.5,0.1-0.8c-0.1-0.2-0.2-0.3-0.5-0.4c-0.2-0.1-0.2-0.1-0.2-0.3c0.1-0.7,1.6-2.3,4.9-2.7c0.2,0,0.4,0,0.6,0
				c0.8,0,1.3,0.2,1.5,0.6c0.2,0.5,0.1,1.1-0.4,1.9c-3.3,4.9-7,11.1-7.4,13.8c0,0.3,0,0.5,0.1,0.6c0.2,0.2,0.5,0.2,0.6,0.2l0,0
				c0.2,0,0.3,0,0.5-0.1c0.2,0,0.4-0.1,0.5-0.1s0.2,0,0.3,0.1c0,0.1,0.2,0.3-0.2,1.2C206.9,38.5,205.6,40.5,203.2,40.5z"/>
			<path class="st6" d="M211.7,19.4c0.6,0,1.1,0.2,1.2,0.5c0.2,0.3,0,0.9-0.4,1.5c-3.3,4.9-7,11.1-7.5,13.9
				c-0.1,0.5,0.1,0.7,0.2,0.9c0.2,0.2,0.5,0.4,0.9,0.4c0.2,0,0.4,0,0.6-0.1c0.2,0,0.3-0.1,0.5-0.1c0,0.1,0,0.4-0.2,0.9
				c-0.3,1-1.5,2.8-3.7,2.8c-0.6,0-1-0.1-1.2-0.4c-0.4-0.4-0.4-1.3-0.2-2.5c0.6-2.8,3.6-10,5.3-13.9c0.1-0.2,0.3-0.6,0.1-1.1
				c-0.1-0.2-0.3-0.4-0.7-0.6c0.1-0.5,1.4-1.9,4.6-2.4C211.3,19.4,211.5,19.4,211.7,19.4 M211.7,18.7c-0.2,0-0.4,0-0.7,0
				c-4.6,0.6-6.1,3.3-4.8,3.7c0.3,0.1,0.4,0.3,0.2,0.7c-1.5,3.4-4.7,11-5.3,14c-0.3,1.4-0.4,3.7,2.1,3.7s3.9-1.9,4.4-3.3
				c0.5-1.5,0.1-1.8-0.4-1.8c-0.4,0-0.8,0.1-1.1,0.1s-0.4-0.1-0.4-0.5c0.4-2.6,4-8.7,7.4-13.7C214.2,20.1,213.7,18.7,211.7,18.7
				L211.7,18.7z"/>
		</g>
		<g>
			<path class="st5" d="M188.1,65c-0.9,0-1.6-0.3-2-0.9c-0.5-0.7-0.5-1.8-0.1-3.1c0.9-2.8,3.3-4.4,7.2-5c2.3-0.3,4.2-1.9,4.9-4
				c0.3-0.8,0.2-1.4-0.1-1.8c-0.3-0.4-0.8-0.6-1.5-0.6c-0.9,0-1.9,0.4-2.1,1.1c-0.1,0.2-0.1,0.4,0,0.6c0.1,0.2,0.3,0.3,0.5,0.3
				c0.2,0.1,0.4,0.1,0.3,0.9c-0.1,1.2-2.4,2.3-4.2,2.3c-0.9,0-1.5-0.2-1.9-0.7c-0.3-0.4-0.3-1-0.1-1.7c1.2-3.5,5.6-5.3,9.4-5.3
				c2.3,0,4.1,0.7,4.8,1.8c0.5,0.9,0.5,2-0.2,3.3c-0.7,1.4-1.6,2.7-2.4,3.7c-0.6,0.9-1.1,1.6-1.3,2.1c0,0.1-0.2,0.5,0.1,0.8
				c0.1,0.2,0.3,0.3,0.6,0.3c0.2,0,0.5,0,0.7-0.1c0.2,0,0.4-0.1,0.6-0.1c0.3,0,0.4,0.1,0.5,0.2c0.1,0.1,0.2,0.6-0.2,1.8
				c-0.5,1.5-2.3,4.1-5.4,4.1c-1.4,0-1.7-0.3-1.8-0.4c0,0-0.1-0.2,0-0.5c0-0.1,0.1-0.3,0.2-0.4c0.4-0.8,0.6-1.2,0.4-1.5l-0.1-0.2
				h-0.3c-0.4,0-0.8,0.3-1.2,0.7C192.1,64,190,65,188.1,65z M194.4,57.5c-2.3,0-3.5,1.1-3.5,2c0,0.3,0.1,0.5,0.3,0.7
				c0.2,0.1,0.5,0.2,0.8,0.2c1.4,0,3.1-0.8,3.5-1.8c0-0.1,0.2-0.4,0-0.7C195.3,57.5,194.9,57.5,194.4,57.5z"/>
			<path class="st6" d="M198.5,47.3c2.2,0,3.8,0.6,4.5,1.7c0.5,0.8,0.4,1.8-0.2,3c-0.7,1.4-1.6,2.6-2.3,3.6
				c-0.6,0.9-1.2,1.6-1.4,2.2c-0.1,0.4-0.1,0.8,0.1,1.1c0.1,0.2,0.4,0.4,0.9,0.4c0.2,0,0.5,0,0.8-0.1c0.2,0,0.4-0.1,0.6-0.1
				c0.1,0,0.2,0,0.2,0l0,0c0,0,0.1,0.4-0.2,1.4c-0.5,1.4-2.1,3.9-5.1,3.9c-1.3,0-1.6-0.2-1.6-0.2l0,0c0,0,0-0.1,0-0.2l0,0l0,0
				c0-0.1,0.1-0.2,0.1-0.3c0.4-0.9,0.6-1.3,0.4-1.8c-0.1-0.2-0.4-0.4-0.7-0.4l0,0l0,0c-0.6,0.1-1,0.5-1.3,0.8
				c-1.3,1.5-3.3,2.4-5.1,2.4c-0.4,0-1.3-0.1-1.7-0.8c-0.4-0.6-0.4-1.6,0-2.8c0.9-2.6,3.2-4.2,6.9-4.8c2.4-0.4,4.4-2,5.2-4.2
				c0.4-1.1,0.1-1.8-0.1-2.1c-0.4-0.5-1-0.8-1.7-0.8c-1,0-2.2,0.5-2.5,1.3c0,0.1-0.2,0.5,0,0.9c0.2,0.3,0.5,0.4,0.7,0.5
				c0,0,0,0,0.1,0l0,0c0,0,0.1,0.2,0,0.5c-0.1,1-2.1,2-3.9,2c-0.8,0-1.3-0.2-1.6-0.5c-0.3-0.4-0.2-1,0-1.4
				C190.6,49.1,194.9,47.3,198.5,47.3 M192.1,60.7c1.5,0,3.4-0.8,3.8-2c0.2-0.4,0.1-0.8-0.1-1.1c-0.3-0.5-1-0.5-1.4-0.5
				c-2.3,0-3.8,1.2-3.8,2.3c0,0.4,0.2,0.7,0.5,0.9C191.3,60.6,191.6,60.7,192.1,60.7 M198.5,46.6c-3.8,0-8.5,1.9-9.7,5.6
				c-0.7,2.1,0.6,2.9,2.2,2.9c2,0,4.4-1.1,4.6-2.6c0.2-1.8-1.1-0.9-0.8-1.7c0.2-0.5,1-0.9,1.8-0.9c0.9,0,1.7,0.5,1.2,2
				c-0.6,1.9-2.4,3.5-4.7,3.8c-2.8,0.4-6.2,1.6-7.5,5.3c-1.1,3,0.5,4.4,2.4,4.4s4.1-1,5.6-2.6c0.3-0.4,0.6-0.5,0.9-0.6
				c0.2,0,0,0.4-0.3,1.2c-0.1,0.1-0.1,0.3-0.2,0.4c-0.3,0.9,0.1,1.4,2.2,1.4c3.2,0,5.1-2.6,5.7-4.3c0.7-2,0.1-2.4-0.6-2.4
				c-0.4,0-1,0.2-1.3,0.2s-0.5-0.1-0.4-0.6c0.4-1,2.4-3.1,3.7-5.7C205.3,48.5,202.3,46.6,198.5,46.6L198.5,46.6z M192.1,60
				c-1.7,0-0.7-2.2,2.3-2.2c0.7,0,1.1,0.1,0.9,0.6C194.9,59.3,193.3,60,192.1,60L192.1,60z"/>
		</g>
		<g>
			<path class="st5" d="M179.5,64.7c-0.9,0-1.5-0.3-1.8-0.7c-0.3-0.5-0.3-1.4,0.2-2.6l2.7-6.7c0.2-0.4,0.2-0.7,0.1-1
				c-0.1-0.3-0.3-0.4-0.7-0.6c-0.4-0.2-0.6-0.5-0.5-0.9c0.2-1.2,2.4-3,5.1-3c0.1,0,0.2,0,0.3,0c1.3,0,2.3,0.4,2.6,1
				c0.1,0.3,0.1,0.6-0.2,1c-1.7,2.3-1.9,2.6-2.1,3l-1.5,3.4c-0.1,0.4-0.2,0.7,0,0.9c0.1,0.3,0.4,0.5,0.8,0.7c0.1,0,0.2,0.3,0.1,0.8
				c-0.3,1.6-2.1,4.6-5,4.6C179.7,64.7,179.5,64.7,179.5,64.7z"/>
			<path class="st6" d="M184.6,49.6c0.1,0,0.2,0,0.2,0c1.4,0,2.1,0.4,2.3,0.8c0.1,0.2,0,0.4-0.2,0.7c-1.7,2.3-1.9,2.6-2.1,3
				l-1.5,3.4c-0.2,0.4-0.2,0.8,0,1.2s0.4,0.6,0.9,0.8c0.1,0.3-0.1,1.2-0.8,2.4c-0.5,0.7-1.8,2.5-3.9,2.5c-0.1,0-0.1,0-0.2,0
				c-0.8,0-1.3-0.2-1.5-0.6c-0.3-0.4-0.2-1.3,0.2-2.3l2.7-6.7c0.2-0.5,0.2-0.9,0.1-1.2c-0.2-0.3-0.5-0.6-0.9-0.7
				c-0.3-0.1-0.4-0.3-0.3-0.5C180,51.3,182,49.6,184.6,49.6 M184.6,48.9c-4.1,0-7,3.8-4.7,4.6c0.5,0.2,0.6,0.5,0.4,1.1l-2.7,6.7
				c-0.9,2.3-0.5,3.7,1.9,3.8c0.1,0,0.1,0,0.2,0c4.2,0,6.3-5.7,5-6.1c-0.6-0.2-0.8-0.6-0.6-1.2l1.5-3.4c0.1-0.3,0.3-0.6,2-2.9
				c1-1.3-0.2-2.5-2.7-2.5C184.8,48.9,184.7,48.9,184.6,48.9L184.6,48.9z"/>
		</g>
		<g>
			<path class="st5" d="M170.5,65.8c-1.2,0-2.1-0.3-2.6-1s-0.5-1.6-0.1-2.7c0.5-1.4,1.3-2.7,2.1-3.8c0.6-0.9,1.1-1.7,1.4-2.4
				c0.3-0.8,0.3-1.3,0-1.6c-0.2-0.3-0.7-0.4-1-0.4c-1.8,0-3.7,1.7-4.4,3.8c-0.2,0.6,0.1,0.9,0.4,1.2l0.1,0.2
				c0.3,0.5,0.2,1.4-0.2,2.6c-0.8,2.2-1.8,3.1-3.6,3.1c-1,0-1.7-0.3-2.1-0.8c-0.4-0.6-0.4-1.4-0.1-2.4l2.3-6.7c0.1-0.4,0.1-0.7,0-1
				c-0.2-0.3-0.5-0.5-0.9-0.6c-1-0.3-0.9-0.7-0.9-0.8c0.2-1.3,3.4-3.3,5.8-3.3c0.5,0,1.1,0.1,1.4,0.5c0.3,0.4,0,1-0.2,1.5
				c-0.3,0.7-0.4,1.2-0.2,1.4c0.1,0.1,0.3,0.2,0.4,0.2c0.4,0,0.9-0.4,1.1-0.7c1.9-2.3,3-3.4,5.9-3.4c0.9,0,1.6,0.3,2,0.8
				c0.5,0.7,0.5,1.7,0.1,2.9c-0.4,1.1-1.4,2.8-2.2,4.2c-0.6,1-1.1,1.9-1.3,2.3c0,0.1-0.2,0.5,0,0.8c0.2,0.3,0.5,0.3,0.6,0.3
				c0.2,0,0.4,0,0.6-0.1c0.2,0,0.5-0.1,0.7-0.1c0.3,0,0.4,0.1,0.5,0.2c0.1,0.1,0.2,0.6-0.2,1.7C175.4,63.2,173.6,65.8,170.5,65.8z"
				/>
			<path class="st6" d="M175,48.9c0.8,0,1.4,0.2,1.7,0.7c0.4,0.6,0.4,1.5,0,2.6s-1.4,2.8-2.2,4.2c-0.6,1.1-1.1,1.9-1.3,2.4
				c-0.2,0.4-0.1,0.8,0.1,1.1c0.2,0.3,0.5,0.4,0.9,0.4c0.2,0,0.4,0,0.7-0.1c0.2,0,0.5-0.1,0.7-0.1c0.1,0,0.2,0,0.2,0l0,0
				c0,0,0.1,0.3-0.2,1.4c-0.5,1.4-2.1,3.9-5.1,3.9c-1.1,0-1.9-0.3-2.3-0.8c-0.4-0.6-0.4-1.4-0.1-2.4c0.5-1.3,1.3-2.6,2-3.7
				c0.6-0.9,1.2-1.8,1.4-2.5c0.2-0.6,0.4-1.4,0-1.9c-0.4-0.5-1-0.5-1.3-0.5c-1.9,0-4,1.8-4.8,4.1c-0.2,0.8,0.2,1.2,0.4,1.5l0.1,0.1
				c0.2,0.3,0.2,1.1-0.3,2.3c-0.9,2.4-1.9,2.8-3.3,2.8c-0.6,0-1.4-0.1-1.8-0.7c-0.3-0.5-0.3-1.2,0-2.1l2.3-6.7
				c0.2-0.5,0.1-0.9,0-1.2c-0.2-0.4-0.6-0.6-1.1-0.8c-0.2-0.1-0.7-0.2-0.6-0.4c0.1-1,3.2-3,5.5-3c0.6,0,1,0.1,1.1,0.3
				s0.1,0.6-0.2,1.2c-0.4,0.8-0.4,1.4-0.2,1.8c0.2,0.2,0.4,0.4,0.7,0.4c0.5,0,1-0.4,1.4-0.8C171.5,49.9,172.5,48.9,175,48.9
				 M175,48.3c-2.9,0-4.1,1.2-6.1,3.6c-0.3,0.4-0.6,0.6-0.9,0.6s-0.3-0.3,0.1-1.2c0.8-1.7,0.1-2.5-1.5-2.5c-3.3,0-8.4,3.8-5,4.8
				c0.7,0.2,0.9,0.5,0.7,1.2l-2.3,6.7c-0.8,2.3,0.2,3.7,2.5,3.7c1.9,0,3.1-0.9,4-3.3c0.5-1.4,0.5-2.4,0.2-2.9
				c-0.3-0.4-0.6-0.6-0.4-1.1c0.7-2.1,2.5-3.6,4.1-3.6c0.6,0,1.1,0.2,0.6,1.5c-0.5,1.5-2.6,3.7-3.4,6.2c-0.6,1.8-0.3,4.1,3,4.1
				c3.2,0,5.1-2.6,5.7-4.3c0.7-2,0.1-2.4-0.6-2.4c-0.5,0-1,0.1-1.3,0.1s-0.5-0.1-0.3-0.6c0.4-1,2.8-4.6,3.5-6.5
				C178.2,50.1,177.5,48.3,175,48.3L175,48.3z"/>
		</g>
		<g>
			<path class="st5" d="M173.8,45.5c-1.8,0-3.3-0.6-4.1-1.8c-0.9-1.2-1-3-0.3-5c0.3-0.9,1-2.3,1.6-3.6c0.6-1.4,1.3-2.8,1.7-3.9
				c0.2-0.6,0.2-1,0-1.3s-0.6-0.3-0.8-0.3c-1.4,0-2.9,1.9-3.5,3.6c-0.1,0.3,0,0.5,0.1,0.7c0.2,0.4,0.4,0.9,0.1,1.7
				c-0.7,1.6-1.6,2.3-3,2.3c-0.7,0-1.1-0.2-1.4-0.5c-0.3-0.4-0.3-1.1,0-1.9l0.1-0.3c1.6-4.8,3.3-9.8,6-15.9c0.1-0.3,0.1-0.6,0-0.9
				c-0.2-0.3-0.5-0.6-0.9-0.7c-0.1,0-0.2-0.1-0.2-0.3c0.1-0.8,2-2.4,5.7-2.4c1,0,1.6,0.2,1.9,0.7c0.2,0.3,0.1,0.8-0.3,1.4
				c-3.4,4.7-5.4,7.7-6,9.2c-0.1,0.2-0.2,0.7,0,1c0.1,0.2,0.3,0.2,0.5,0.2s0.4-0.1,0.6-0.2c0.1-0.1,0.3-0.2,0.5-0.3
				c0.7-0.5,1.7-1.2,3.4-1.2c0.8,0,1.5,0.3,1.9,0.8c0.4,0.5,0.4,1.2,0.2,1.9c-0.5,1.3-1.6,3.3-2.7,5.1c-1,1.6-1.9,3.1-2.2,4
				c-0.3,0.8-0.3,1.5,0,1.9c0.4,0.6,1.1,0.6,1.7,0.6c0.6,0,1.2-0.1,1.9-0.2c0.4,0,0.7-0.1,1-0.1c0.1,0,0.2,0,0.3,0
				c0.5,0,0.9,0.1,1.1,0.4c0.2,0.2,0.3,0.5,0.3,0.9C179.1,42.8,176.9,45.5,173.8,45.5z"/>
			<path class="st6" d="M175.1,15.4c1,0,1.4,0.3,1.5,0.5c0.1,0.2,0,0.6-0.3,1c-3.4,4.7-5.4,7.7-6,9.3c-0.1,0.2-0.3,0.8,0.1,1.3
				c0.2,0.2,0.4,0.4,0.8,0.4c0.2,0,0.5-0.1,0.8-0.3c0.1-0.1,0.3-0.2,0.5-0.3c0.7-0.5,1.6-1.2,3.2-1.2c0.7,0,1.3,0.3,1.6,0.7
				c0.3,0.4,0.3,1,0.1,1.6c-0.5,1.3-1.6,3.3-2.7,5c-1,1.7-1.9,3.1-2.2,4.1s-0.3,1.7,0.1,2.2c0.5,0.8,1.6,0.8,2,0.8
				c0.6,0,1.3-0.1,1.9-0.2c0.4,0,0.7-0.1,1-0.1c0.1,0,0.2,0,0.3,0c1,0,1.1,0.5,1.1,0.9c0,1.4-1.9,4.1-5,4.1c-1.7,0-3.1-0.6-3.8-1.6
				c-0.8-1.1-0.9-2.8-0.2-4.7c0.3-0.9,1-2.3,1.6-3.6c0.6-1.4,1.3-2.8,1.7-3.9c0.2-0.5,0.3-1.1,0-1.6c-0.3-0.5-0.9-0.5-1.1-0.5
				c-1.7,0-3.2,2.2-3.8,3.9c-0.1,0.4,0,0.7,0.2,0.9c0.2,0.4,0.3,0.8,0.1,1.4c-0.8,1.8-1.8,2.1-2.7,2.1c-0.4,0-0.9-0.1-1.1-0.3
				c-0.2-0.3-0.2-0.9,0.1-1.6l0.1-0.3c1.7-5,3.3-9.8,6-15.9c0.2-0.4,0.1-0.8,0-1.2c-0.2-0.4-0.6-0.7-1-0.9c0-0.1,0.1-0.3,0.3-0.5
				C170.4,16.6,171.8,15.4,175.1,15.4 M175.1,14.7c-5.1,0-6.9,3-5.6,3.4c0.5,0.1,0.9,0.6,0.7,1.1c-2.7,6.2-4.4,11.1-6.1,16.2
				c-0.6,1.8-0.1,2.9,1.7,2.9c1.4,0,2.5-0.7,3.3-2.5c0.6-1.4-0.3-2.1-0.2-2.4c0.5-1.6,1.9-3.4,3.1-3.4c0.5,0,0.9,0.1,0.5,1.2
				c-0.7,2.1-2.6,5.5-3.2,7.5c-1.6,4.6,0.9,7.2,4.7,7.2c4.9,0,7.7-6.4,3.8-6.4c-0.1,0-0.2,0-0.3,0c-0.9,0.1-2,0.3-2.9,0.3
				c-1.2,0-2-0.4-1.4-2.1c0.6-1.9,3.9-6.5,4.9-9.1c0.6-1.8-0.5-3.2-2.4-3.2c-2.3,0-3.3,1.2-4,1.6c-0.2,0.1-0.3,0.2-0.4,0.2
				c-0.3,0-0.3-0.4-0.2-0.8c0.5-1.4,2.3-4.2,5.9-9.1C177.9,15.8,177.2,14.7,175.1,14.7L175.1,14.7z"/>
		</g>
		<g>
			<path class="st5" d="M118.3,37.6c-0.6,0-1-0.1-1.3-0.4c-0.5-0.6-0.2-1.8,0-2.7v-0.2c0.6-2.5,1.5-4.5,2.7-7.1
				c0.4-0.8,0.7-1.6,1.1-2.5l0.1-0.2c0.2-0.5,0.6-1.1,0.1-1.5c-0.4-0.3-0.5-0.7-0.4-1.1c0.3-0.9,1.8-1.9,5.2-1.9c1,0,1.7,0.4,2,0.9
				c0.2,0.4,0,1-0.4,1.5c-3.2,3.5-5.2,6.5-6.4,9.9c-0.1,0.3-0.1,0.5,0,0.7c0.2,0.2,0.5,0.3,0.7,0.3c0.1,0,0.5,0,0.6,0
				c0.3,0,0.4,0.1,0.5,0.1c0,0,0.1,0.3-0.3,1.2C122.1,35.7,120.3,37.6,118.3,37.6z"/>
			<path class="st6" d="M125.9,20.4c0.8,0,1.5,0.3,1.7,0.7c0.2,0.4-0.2,0.9-0.4,1.1c-3.3,3.5-5.3,6.6-6.5,10.1
				c-0.2,0.5-0.1,0.8,0.1,1c0.3,0.4,0.8,0.4,1,0.4c0.1,0,0.2,0,0.3,0c0.1,0,0.2,0,0.3,0c0.1,0,0.1,0,0.2,0c0,0.1-0.1,0.4-0.3,0.8
				c-0.5,1-2.2,2.8-4,2.8c-0.5,0-0.8-0.1-1-0.3c-0.4-0.5-0.1-1.6,0.1-2.4v-0.2c0.6-2.5,1.5-4.5,2.7-7c0.4-0.8,0.7-1.6,1.1-2.5
				c0-0.1,0.1-0.1,0.1-0.2c0.3-0.5,0.7-1.4,0-1.9c-0.2-0.2-0.3-0.4-0.2-0.7C121.3,21.4,122.5,20.4,125.9,20.4 M125.9,19.7
				c-5.3,0-6.4,2.5-5,3.6c0.3,0.2-0.1,0.9-0.3,1.3c-1.7,3.9-3,6.4-3.8,9.7c-0.3,1.4-1,3.7,1.5,3.7c2.1,0,4-2,4.6-3.1
				c0.8-1.6,0.2-1.8-0.5-1.8c-0.2,0-0.4,0-0.6,0c-0.4,0-0.6-0.1-0.5-0.5c1.3-3.9,3.6-6.9,6.3-9.8C129,21.2,128,19.7,125.9,19.7
				L125.9,19.7z"/>
		</g>
		<g>
			<path class="st5" d="M94.6,100.5c-1.3,0-2.3-0.4-2.8-1.1s-0.5-1.7-0.1-3l0.6-1.8c0.7-2.1,1.6-3,3-3h1.2c0.8,0,1.4-0.4,1.7-1.2
				l1.9-5.5c0.7-2,0.5-3.7-0.4-5c-1.3-1.8-4-2.5-6-2.5c-1.7,0-3.1,0.3-4,1c-0.8,0.6-1.3,1.4-1.3,2.3c0,1.2,0.9,2.2,2.1,2.2
				c1,0,1.5-0.6,2-1.2s1-1.2,2-1.2c1.1,0,2,0.4,2.5,1.1c0.6,0.9,0.8,2.3,0.3,3.6c-0.4,1.3-1.8,3.6-5.7,3.6c-2.2,0-4.1-0.9-5.2-2.5
				c-1.4-2-1.7-4.8-0.8-7.5c1.1-3.1,4.3-8.3,13.8-8.3c2.6,0,5.6,0.4,8.9,1.2c0.1,0,0.2,0,0.4,0c0.7,0,1.2-0.5,1.4-1.3
				c0.4-2.3,1.5-2.8,2.9-2.8c0.5,0,1.1,0.1,1.8,0.1c1.4,0.2,2.8,0.6,4.3,1.2c2.5,1.1,3.2,2.4,2.4,4.5l-3,8.8c-0.7,2.1-1.8,3-3.7,3
				c-1.6,0-1.9-1.1-2.2-2.9c-0.3-1.6-0.6-3.5-2.8-3.5h-0.9c-1.7,0-2.9,1.9-2.9,3.2c0,0.3,0.1,0.5,0.2,0.7c0.2,0.2,0.4,0.4,0.7,0.4
				c0.6,0,0.9-0.3,1.2-0.6c0.3-0.3,0.6-0.6,1.4-0.6c0.5,0,0.8,0.2,1.1,0.5c0.2,0.3,0.4,0.8,0.4,1.4c0,2.2-1.6,5-3.3,5
				c-1.1,0-1.2-0.5-1.4-1.1c-0.1-0.4-0.2-1-0.9-1c-1.2,0-1.9,1.8-1.9,3c0,0.5,0.1,0.8,0.3,1.1c0.2,0.3,0.6,0.5,1.1,0.5h3.1
				c1.3,0,2.3,0.4,2.8,1.1s0.5,1.7,0.1,3l-0.6,1.8c-0.7,2-2,3-4.2,3H94.6V100.5z"/>
			<path class="st6" d="M113.1,68.2c0.5,0,1.1,0.1,1.7,0.1h0.1c1.3,0.1,2.7,0.5,4.1,1.2c2.3,1,2.9,2.1,2.2,4.1l-3,8.8
				c-0.7,1.9-1.7,2.8-3.4,2.8c-1.3,0-1.5-0.8-1.8-2.6c-0.3-1.6-0.6-3.7-3.2-3.7h-0.9c-2,0-3.2,2.1-3.2,3.6c0,0.4,0.1,0.7,0.2,0.9
				c0.2,0.3,0.6,0.5,1,0.5c0.8,0,1.1-0.4,1.4-0.7c0.3-0.3,0.5-0.5,1.2-0.5c0.3,0,1.1,0,1.1,1.6c0,2-1.4,4.7-2.9,4.7
				c-0.8,0-0.9-0.3-1-0.8c-0.1-0.4-0.3-1.2-1.3-1.2c-1.4,0-2.3,2-2.3,3.3c0,0.5,0.1,1,0.4,1.3c0.3,0.4,0.8,0.7,1.3,0.7h3.1
				c1.2,0,2.1,0.3,2.5,0.9s0.5,1.5,0.1,2.7l-0.6,1.8c-0.6,1.9-1.8,2.8-3.9,2.8H94.6c-1.2,0-2.1-0.3-2.5-1c-0.4-0.6-0.5-1.5-0.1-2.7
				l0.6-1.8c0.8-2.4,1.9-2.8,2.7-2.8h1.2c1,0,1.7-0.5,2-1.4l1.9-5.5c0.7-2.1,0.6-3.9-0.4-5.3c-1.7-2.4-5.2-2.6-6.3-2.6
				c-1.8,0-3.2,0.4-4.2,1.1c-0.9,0.6-1.4,1.6-1.4,2.5c0,1.4,1.1,2.5,2.4,2.5c1.1,0,1.7-0.7,2.3-1.3c0.6-0.7,1-1.1,1.8-1.1
				c1,0,1.8,0.3,2.3,1c0.6,0.8,0.7,2.1,0.3,3.3c-0.5,1.5-1.9,3.4-5.4,3.4c-2.1,0-3.8-0.8-5-2.4c-1.3-1.9-1.6-4.6-0.8-7.1
				c1.1-3,4.2-8,13.5-8c2.6,0,5.6,0.4,8.8,1.2c0.2,0,0.3,0.1,0.5,0.1c0.8,0,1.5-0.6,1.7-1.6C110.9,68.6,111.7,68.2,113.1,68.2
				 M113.1,67.5c-1.6,0-2.8,0.5-3.2,3.1c-0.1,0.6-0.5,1-1,1c-0.1,0-0.2,0-0.3,0c-3.5-0.9-6.4-1.3-9-1.3c-9.7,0-13,5.5-14.1,8.5
				c-1.7,4.9,0.6,10.4,6.4,10.4c3.7,0,5.4-1.9,6-3.8c0.7-2.1,0.1-5.2-3.2-5.2c-2.2,0-2.3,2.4-4,2.4c-2.5,0-3.1-4.8,3.1-4.8
				c3.4,0,7.8,1.8,6.1,7L98,90.3c-0.2,0.6-0.7,1-1.4,1h-1.2c-1.5,0-2.6,1-3.3,3.2l-0.6,1.8c-1,2.7,0.3,4.5,3.2,4.5h11.5
				c2.3,0,3.8-1,4.5-3.2l0.6-1.8c1-2.7-0.3-4.5-3.2-4.5H105c-1.9,0-0.8-4,0.6-4c1,0,0,2.1,2.3,2.1c3.1,0,5.3-7.6,1.8-7.6
				c-1.8,0-1.5,1.2-2.6,1.2c-1.2,0-0.2-3.6,2-3.6h0.9c3.9,0,1.1,6.4,5,6.4c2,0,3.2-1,4-3.2l3-8.8c0.9-2.5-0.1-3.9-2.6-5
				c-1.4-0.6-2.9-1.1-4.3-1.2C114.3,67.5,113.7,67.5,113.1,67.5L113.1,67.5z"/>
		</g>
		<g>
			<path class="st5" d="M129.2,100.5c-3.9,0-7.3-1.4-9-3.9c-1.5-2-1.7-4.6-0.7-7.6c0.6-1.9,2.2-3.7,3.4-5.1c0.9-1.1,1.7-1.9,1.9-2.7
				c0.3-0.9,0.1-1.4-0.1-1.7c-0.2-0.3-0.6-0.5-1-0.5s-0.7-0.1-0.9-0.4c-0.5-0.7-0.4-2,0.1-3.6l0.5-1.6c0.6-1.9,1.8-2.7,4.3-3
				c1.1-0.1,2-0.2,2.8-0.2c0.8,0,1.6,0,2.4,0.2c1.5,0.2,2.5,0.7,2.9,1.4c0.4,0.6,0.4,1.5,0,2.7l-0.9,2.7c-0.5,1.4-1.1,1.8-2,2.4
				c-1.2,0.8-2.5,1.7-3.5,4.9c-0.6,1.6-0.5,3,0.1,3.9c0.5,0.7,1.3,1,2.4,1c2.6,0,5-2.2,5.5-4.8c0.4-2.5,0.2-3.4,0-4.2
				c-0.2-0.8-0.4-1.3,0.5-3.9l1-2.8c0.4-1.2,1.4-1.8,2.8-1.8c2.3,0,5.5,1.6,7.2,3.7c0.6,0.7,1.3,1.8,1.2,2.9
				c-0.3,2.2-1.4,3.4-3.6,3.9c-0.9,0.2-2.2,0.6-2.5,1.5c-0.6,2-1.6,5.6-2.1,7.6C140.3,97.7,134.4,100.5,129.2,100.5L129.2,100.5z"/>
			<path class="st6" d="M130.5,70.6c0.8,0,1.6,0,2.3,0.1c1.4,0.2,2.3,0.6,2.7,1.2c0.3,0.6,0.3,1.4,0,2.4l-0.9,2.7
				c-0.4,1.3-1,1.7-1.9,2.3c-1.1,0.8-2.6,1.7-3.7,5.1c-0.6,1.8-0.5,3.3,0.1,4.2c0.4,0.5,1.2,1.2,2.7,1.2c2.8,0,5.3-2.2,5.8-5.1
				c0.5-2.6,0.2-3.6,0-4.3c-0.2-0.7-0.4-1.2,0.5-3.7l1-2.8c0.4-1,1.2-1.5,2.5-1.5c2.2,0,5.3,1.6,7,3.5c0.8,1,1.2,1.9,1.1,2.6
				c-0.3,2.1-1.3,3.2-3.3,3.6c-1,0.2-2.4,0.6-2.8,1.8c-0.6,2-1.6,5.6-2.1,7.6c-1.5,6.1-7.3,8.8-12.3,8.8c-3.8,0-7-1.4-8.7-3.7
				c-1.4-1.9-1.6-4.4-0.7-7.3c0.6-1.8,2.1-3.6,3.3-5c1-1.1,1.7-2,2-2.8c0.4-1,0.1-1.7-0.1-2c-0.3-0.4-0.8-0.6-1.3-0.6
				c-0.4,0-0.6-0.2-0.7-0.3c-0.4-0.6-0.3-1.8,0.2-3.3l0.5-1.6c0.6-1.8,1.7-2.5,4-2.8C128.8,70.6,129.7,70.6,130.5,70.6L130.5,70.6
				 M130.5,69.9c-0.9,0-1.9,0.1-2.8,0.2c-2.3,0.2-3.8,1-4.5,3.2l-0.5,1.6c-0.9,2.7-0.5,4.5,1.1,4.5c0.6,0,1.2,0.5,0.8,1.7
				c-0.5,1.6-4.2,4.4-5.3,7.8c-2.6,7.7,3.4,11.9,10,11.9c5.5,0,11.5-3,13-9.3c0.5-2,1.5-5.7,2.1-7.6c0.2-0.7,1.2-1.1,2.3-1.3
				c2.1-0.4,3.5-1.6,3.9-4.1c0.5-3.1-5-7-8.7-7c-1.4,0-2.6,0.6-3.1,2l-1,2.8c-1.7,5.1,0.4,2.9-0.5,8.2c-0.4,2.6-2.8,4.5-5.1,4.5
				c-2.6,0-3-2.1-2.2-4.5c1.8-5.5,4.4-3.9,5.5-7.3l0.9-2.7c0.9-2.7-0.3-4.1-3.2-4.5C132.1,69.9,131.3,69.9,130.5,69.9L130.5,69.9z"
				/>
		</g>
		<g>
			<path class="st5" d="M105.3,38.3c-1.9-0.1-3.4-0.9-4.4-2.4c-1.5-2.1-1.7-5.3-0.6-8.5c2-5.7,6.1-7.2,8-7.2c0.6,0,1,0.1,1.3,0.3
				c0.3,0.2,0.6,0.4,0.8,0.4c0.2,0,0.5-0.1,0.6-0.3c0.5-0.8,1.3-1.2,2.3-1.2c1.1,0,2.2,0.6,3,1.5c1.2,1.5,1.6,3.9,1,6.6
				c-1.5,6.5-6.1,10.9-11.5,10.9C105.7,38.4,105.4,38.4,105.3,38.3z M105.4,25.9c-0.1,0-0.4,0.1-0.7,0.4c-1,1.5-1.1,3.6-0.4,4.9
				c0.5,0.9,1.4,1.4,2.4,1.4c2.5,0,4.6-2.4,5.4-4.6c0.6-1.7,0.5-3.2-0.3-3.9c-0.2-0.2-0.4-0.2-0.6-0.2s-0.5,0.1-0.6,0.3
				c-0.2,0.3-0.3,0.7-0.3,1.1c0.1,1-0.1,1.9-0.6,2.5c-0.4,0.5-1.1,0.8-1.8,0.8c-1.1,0-1.8-0.6-1.8-1.7
				C106.2,26.1,105.8,25.9,105.4,25.9z"/>
			<path class="st6" d="M113.2,19.6L113.2,19.6c1,0,2,0.5,2.7,1.4c1.2,1.5,1.5,3.7,0.9,6.3c-1.4,6.4-5.9,10.7-11.2,10.7
				c-0.1,0-0.3,0-0.4,0c-1.8-0.1-3.2-0.9-4.2-2.3c-1.4-2.1-1.6-5.1-0.6-8.2c1.9-5.5,5.8-7,7.6-7c0.7,0,1,0.2,1.1,0.2
				c0.4,0.3,0.7,0.4,1,0.4c0.4,0,0.7-0.2,0.9-0.5C111.7,20,112.4,19.6,113.2,19.6 M108,28.2c-0.7,0-1.4-0.2-1.4-1.4
				c0-0.9-0.6-1.3-1.1-1.3c-0.2,0-0.6,0.1-1,0.6c-1,1.6-1.2,3.8-0.4,5.3c0.6,1,1.5,1.6,2.7,1.6c2.7,0,4.8-2.5,5.7-4.8
				c0.7-1.9,0.5-3.5-0.4-4.3c-0.2-0.2-0.5-0.3-0.8-0.3c-0.3,0-0.7,0.2-0.9,0.4c-0.3,0.3-0.4,0.8-0.4,1.3c0.1,0.9-0.1,1.7-0.5,2.2
				C109.1,28,108.6,28.2,108,28.2 M113.2,19c-1,0-2,0.5-2.6,1.4c-0.1,0.1-0.2,0.2-0.3,0.2c-0.2,0-0.4-0.1-0.6-0.3
				c-0.3-0.2-0.9-0.4-1.5-0.4c-2.4,0-6.4,1.9-8.3,7.5c-1.9,5.7,0.3,11.2,5.3,11.4c0.1,0,0.3,0,0.4,0c5.5,0,10.3-4.5,11.8-11.2
				C118.7,21.8,115.8,19,113.2,19L113.2,19z M108,28.9c2.1,0,3-1.7,2.7-3.7c-0.1-0.5,0.2-1,0.6-1c0.1,0,0.3,0,0.4,0.2
				c1.9,1.7-1,7.9-4.9,7.9c-2.7,0-3.2-3.5-1.8-5.8c0.1-0.2,0.3-0.3,0.4-0.3c0.2,0,0.4,0.2,0.4,0.6C105.9,28.1,106.7,28.9,108,28.9
				L108,28.9z"/>
		</g>
		<g>
			<path class="st5" d="M91.7,65.4c-1.8,0-3.4-0.6-4.5-1.7c-1-1-1.5-2.4-1.4-4c0.1-2,1-3.6,1.8-5c0.7-1.2,1.4-2.4,1.4-3.7
				c0-2.8-3-4.1-9.6-4.1c-2.9,0-4.3,1.9-4.3,3.2c0,0.9,0.6,1.5,1.5,1.5c0.8,0,1.1-0.4,1.5-0.8c0.4-0.4,0.7-0.7,1.4-0.7
				c1,0,1.8,0.3,2.3,0.9c0.4,0.6,0.5,1.5,0.2,2.4c-0.5,1.3-1.6,2.9-4.6,2.9c-1.7,0-3-0.7-4-2c-1.2-1.6-1.4-4-0.7-6.2
				c0.9-2.6,3.7-5.8,11.6-5.8H95c1.3,0,2.2,0.3,2.6,0.9c0.3,0.4,0.3,0.8,0.1,1.3c-0.8,2.1-1.2,2.4-1.7,2.8c-0.4,0.3-0.8,0.6-1.5,1.5
				c-1.6,2.3-3.1,5.6-2.3,7.2c0.4,0.7,1,1,2,1c2.3,0,3.9-2.2,5.5-7.4c0.4-1.4,0.1-1.8-0.3-2.2c-0.3-0.3-0.7-0.5,0-2.6l0.5-1.5
				c0.6-1.6,1.3-2.6,3-2.6c0.7,0,1.5,0.2,2.4,0.5c0.8,0.3,1.4,0.8,1.7,1.5c0.4,0.8,0.4,1.8,0,2.7c-1,2.6-1.4,2.7-1.8,2.7
				c-0.5,0-0.9,0.1-1.4,1c-1.4,2.5-2.4,5.2-3,7.8C99.5,62.9,95.3,65.4,91.7,65.4z"/>
			<path class="st6" d="M103,41.3c0.6,0,1.4,0.1,2.3,0.4c0.7,0.2,1.2,0.7,1.5,1.3c0.3,0.7,0.4,1.6,0,2.5c-0.9,2.4-1.3,2.5-1.5,2.5
				c-0.5,0-1.1,0.1-1.7,1.2c-1.4,2.5-2.5,5.2-3.1,7.9c-1.3,5.5-5.4,8-8.8,8c-1.7,0-3.2-0.6-4.2-1.6c-0.9-0.9-1.4-2.2-1.3-3.7
				c0.1-1.9,0.9-3.4,1.8-4.8c0.8-1.3,1.5-2.5,1.5-3.9c0-4-5.7-4.5-9.9-4.5c-3.1,0-4.6,2.1-4.6,3.6c0,1.1,0.8,1.9,1.8,1.9
				c0.9,0,1.4-0.5,1.7-0.9s0.6-0.6,1.2-0.6c0.9,0,1.6,0.3,2,0.8c0.4,0.5,0.4,1.3,0.2,2.1c-0.4,1.2-1.5,2.7-4.3,2.7
				c-1.6,0-2.8-0.6-3.7-1.8c-1.1-1.5-1.3-3.8-0.6-5.9C74.2,46,76.9,43,84.6,43H95c1.1,0,2,0.3,2.4,0.8c0.2,0.3,0.2,0.6,0,1
				c-0.8,2-1.1,2.3-1.6,2.6c-0.4,0.3-0.9,0.6-1.6,1.6c-0.6,0.9-3.5,5.3-2.3,7.6c0.3,0.5,0.9,1.2,2.3,1.2c2.5,0,4.2-2.3,5.8-7.6
				c0.4-1.4,0.2-2-0.5-2.6c-0.2-0.2-0.5-0.4,0.1-2.2l0.5-1.5C100.8,42.2,101.4,41.3,103,41.3 M103,40.6c-2,0-2.8,1.3-3.3,2.9
				L99.1,45c-1.4,4.1,1.2,1.9,0.3,4.8c-1.5,4.9-3,7.1-5.2,7.1c-3.7,0-1.4-4.9,0.5-7.7c1.5-2.2,1.9-0.6,3.2-4.3
				c0.6-1.6-0.7-2.7-3-2.7H84.4c-7.6,0-10.8,2.9-11.9,6c-1.4,4,0.5,8.6,5,8.6c3,0,4.4-1.5,5-3.1c0.6-1.7-0.1-3.8-2.8-3.8
				c-1.7,0-1.6,1.5-2.9,1.5c-2.2,0-1.3-4.1,2.8-4.1c6.9,0,9.2,1.4,9.2,3.8c0,2.6-3.1,4.8-3.2,8.7s2.8,6.1,6.2,6.1
				c3.8,0,8.1-2.6,9.5-8.5c0.6-2.6,1.7-5.3,3-7.7c1.1-2,1.5,1,3.2-3.7c0.7-1.9,0-4-2-4.7C104.5,40.8,103.6,40.6,103,40.6L103,40.6z"
				/>
		</g>
		<g>
			<path class="st5" d="M128.4,37.9c-1.3,0-2.4-0.5-3-1.4c-0.8-1.2-0.9-2.9-0.2-4.8c1.2-3.4,3.7-5.5,6.7-5.5c0.3,0,0.6,0.1,0.9,0.2
				s0.6,0.2,0.9,0.2c0.5,0,0.8-0.3,0.8-0.8c0-6-5.4-8.3-8.3-8.7c-0.8-0.1-1.2-0.5-1.1-1.3c0.1-1.4,1.9-3.5,4-3.5
				c1.5,0,4.6,1.1,6.6,4.2c1.8,2.6,3.2,7.3,0.2,15C134,36.2,130.7,37.9,128.4,37.9z M131.5,29.2c-1.1,0-2.3,0.9-2.8,2.1
				c-0.3,0.8-0.4,1.4-0.1,1.9c0.2,0.2,0.5,0.5,1.2,0.5c1.1,0,2-0.7,2.6-2c0.4-0.9,0.4-1.6,0.1-2C132.4,29.5,132.1,29.2,131.5,29.2z"
				/>
			<path class="st6" d="M128.9,12.6c1.5,0,4.5,1.2,6.4,4c1.7,2.5,3.1,7.1,0.2,14.7c-1.8,4.6-4.9,6.2-7.1,6.2c-1.2,0-2.1-0.5-2.7-1.3
				c-0.8-1.1-0.8-2.7-0.2-4.5c1.1-3.3,3.6-5.3,6.3-5.3c0.2,0,0.5,0.1,0.8,0.2c0.3,0.1,0.6,0.2,0.9,0.2c0.7,0,1.1-0.4,1.1-1.1
				c0-2.8-1.2-5.2-3.5-6.9c-2.2-1.6-4.6-2-5-2.1c-0.8-0.1-0.9-0.5-0.8-0.9C125.4,14.5,127,12.6,128.9,12.6 M129.9,34
				c1.2,0,2.3-0.8,2.9-2.2c0.4-1,0.5-1.8,0.1-2.3c-0.2-0.3-0.6-0.6-1.3-0.6c-1.2,0-2.5,1-3.1,2.3c-0.4,0.9-0.4,1.7-0.1,2.2
				C128.6,33.7,129,34,129.9,34 M128.9,11.9c-3.4,0-6.1,5-2.9,5.4c2,0.3,8,2.2,8,8.3c0,0.3-0.2,0.4-0.4,0.4c-0.4,0-1.2-0.3-1.7-0.3
				c-3.1,0-5.8,2.3-7,5.7c-1.4,4.2,0.7,6.7,3.6,6.7c2.6,0,5.9-2,7.7-6.7C141.8,16.9,132.2,11.9,128.9,11.9L128.9,11.9z M129.9,33.4
				c-1,0-1.3-0.7-0.8-1.9c0.4-1.1,1.5-1.9,2.5-1.9s1.1,0.8,0.6,2S130.8,33.4,129.9,33.4L129.9,33.4z"/>
		</g>
		<g>
			<path class="st5" d="M144.9,101.4c-1.3,0-2.2-0.4-2.7-1c-0.5-0.7-0.6-1.7-0.2-3l0.6-1.8c0.7-2,1.7-3,3.3-3h1.5
				c0.9,0,1.8-0.5,1.8-1.4c0-1-0.6-1.4-1-1.7c-0.5-0.4-0.8-0.6-0.6-1.5c0.4-1.7,1.2-1.9,2.2-2.1c0.7-0.2,1.4-0.4,1.7-1.2l2.4-6.8
				c0.3-0.8,0.1-1.4-0.4-1.9c-2.7-3.3-6-5.6-9.5-6.9c-1.8-0.6-2.8-1.5-3-2.5c-0.2-1,0.4-2.2,1.6-3.3c0.6-0.7,0.8-1.2,0.6-1.6
				c-0.1-0.2-0.3-0.4-0.6-0.4c-0.5,0-1.2,0.4-1.8,1.1c-0.8,0.9-2.6,2.5-5.2,2.5c-1,0-1.8-0.4-2.3-1c-0.5-0.7-0.5-1.7-0.1-3
				c1.3-3.6,4.9-4.6,7.6-5c2.5-0.4,4-1.4,4.6-3.3c0.3-0.8,0.1-1.3-0.1-1.6s-0.7-0.5-1.1-0.5c-0.6,0-1.2,0.3-1.3,0.8
				c-0.4,2-3.3,3.2-5.1,3.2c-0.8,0-1.3-0.2-1.5-0.5c-0.1-0.2-0.2-0.5,0-0.8c0.1-0.2,0.1-0.3,0.2-0.4c0.2-0.4,0.3-0.8,0.1-1.1
				c-0.1-0.2-0.3-0.3-0.6-0.3c-2,0-6.8,6.4-8.2,9.8l-0.5,1.1h0.5c0.7,0.1,1.3,0.1,1.9,0.1c0.7,0,1.2,0.1,1.5,0.4
				c0.3,0.2,0.4,0.6,0.4,1c0,1.6-2.1,4.1-5.3,4.1c-3.9,0-9.1-1.3-14.2-11.1c-0.2-0.5-0.5-0.7-0.9-0.7c-0.5,0-0.9,0.5-1.3,1.5
				c-0.3,0.8,0.2,1.1,0.6,1.5s0.5,1.3,0,2.7c-0.7,2.2-1.8,3-3.9,3c-1,0-1.7-0.3-2.1-0.8c-0.4-0.5-0.5-1.4-0.2-2.5
				c0.7-3,2-5.9,3.2-8.7c1.1-2.6,2.1-5,2.6-7c0.1-0.3,0.3-1.2-0.7-1.5c-0.3-0.1-0.5-0.3-0.5-0.6c0.1-1,2.1-3,6.4-3.5
				c0.3,0,0.6-0.1,0.9-0.1c0.7,0,1.1,0.1,1.3,0.4c0.2,0.4,0,1.3-0.7,2.6c-0.4,0.7-1.1,1.8-1.9,2.9c-1,1.5-2.2,3.2-3,4.7
				c-0.3,0.5-0.5,1.2-0.3,1.6c0.1,0.2,0.3,0.2,0.4,0.2c0.2,0,0.5-0.1,0.8-0.4c3.2-3.4,6-5.7,8.9-5.7c1.6,0,2.4,0.7,2.4,2.1
				c0,2.6-2.8,6.4-5.3,6.4c-0.1,0-0.3,0-0.4,0c-1.1-0.2-1.3-0.9-1.5-1.5c-0.1-0.4-0.3-0.9-0.7-1.1c-0.2-0.1-0.4-0.1-0.6-0.1
				c-0.5,0-1,0.3-1.2,0.8c-0.3,0.6-0.4,1.6,0.4,2.7c2.2,3.2,5.6,4.8,8.1,5.7l0.3,0.1l2.7-7.7c0.1-0.4,0.1-0.7,0-1
				c-0.1-0.2-0.4-0.4-0.7-0.5c-0.4-0.1-0.6-0.4-0.6-0.9c0.2-1.3,2.3-3.2,5.2-3.2c0.4,0,0.9,0.1,1,0.4c0.1,0.2,0.2,0.9-0.9,2.5
				c-0.4,0.6-0.6,1.2-0.4,1.6c0.1,0.2,0.3,0.3,0.5,0.3c0.2,0,0.5-0.1,0.8-0.5c4.4-5.6,7-7.6,10.2-7.6c1.1,0,1.9,0.3,2.3,0.8
				c0.4,0.4,0.5,1,0.5,1.8c0,0.3,0,0.6,0.2,0.9c0.1,0.1,0.3,0.2,0.5,0.2c0.1,0,0.3,0,0.5-0.1c1-0.3,2-0.5,2.9-0.5s2,0.2,2.6,1
				c0.5,0.8,0.6,1.9,0,3.4c-0.4,1.1-1.5,2.4-2.3,3.5c-0.7,0.9-1.3,1.5-1.4,2c-0.1,0.2-0.1,0.5,0,0.8c0.2,0.3,0.5,0.3,0.6,0.3
				c0.2,0,0.4,0,0.7-0.1c0.2,0,0.5-0.1,0.7-0.1c0.4,0,0.6,0.1,0.7,0.2c0.1,0.1,0.2,0.4-0.3,1.4l-0.2,0.5h0.5c0.6,0,1.1,0.1,1.6,0.2
				l0.3,0.1l2.3-6.4c0.1-0.4,0.1-0.7,0-1c-0.1-0.2-0.4-0.4-0.7-0.5c-0.4-0.1-0.6-0.4-0.6-0.9c0.2-1.3,2.4-3.2,5.3-3.2
				c1.6,0,2.5,0.5,2.7,1c0.1,0.3,0,0.6-0.2,0.9c-1,1.1-1.8,2.7-1.9,3.1l-1.3,3.5c-0.3,0.9,0.3,1.3,0.7,1.5c0.6,0.4,0.6,1.6,0.1,3.1
				l-0.7,2.1l0.1,0.1c3.3,3.4,5.5,9.3,7.6,20.8c0.2,0.9,0.7,1.3,1.1,1.3c0.5,0,0.9-0.4,1.1-1l1.1-3.2c0.4-1.2-0.4-1.6-1.1-1.9
				c-1.4-0.4-1.9-1.7-1.6-3.7l0.7-4.2c0.3-2.1,1.4-2.9,3.9-2.9h0.4c2.1,0.1,4,0.4,5.6,1c2.6,0.9,3.2,2,2.4,4.4l-0.8,2.4
				c-0.8,2.4-1.4,3.2-2.3,3.2c-0.8,0-1.4,0.4-1.7,1.2l-5.2,15c-0.6,1.9-2.2,2.6-3.3,2.6l0,0c-1.4,0-2.8-1-2.8-3.2
				c0-4.3-2.1-10.2-3-12.5c-0.2-0.6-0.8-1-1.3-1c-0.7,0-1.2,0.5-1.4,1.4c-0.2,0.9,0.3,1.4,0.7,1.9c0.5,0.5,0.9,1,0.7,1.9
				c-0.4,1.5-1.1,1.7-1.8,1.9c-0.6,0.2-1.3,0.4-1.5,1.4c-0.1,0.5,0,0.8,0.2,1c0.2,0.3,0.6,0.4,1.2,0.4c2.7,0,3.7,0.6,3.7,3.7V98
				c0,2.4-1.3,3.6-3.7,3.6h-11.2V101.4z M141.8,57.5c-2.3,0-3.5,1.1-3.5,2c0,0.3,0.1,0.5,0.3,0.7c0.2,0.1,0.5,0.2,0.8,0.2
				c1.4,0,3.1-0.8,3.5-1.8c0-0.1,0.2-0.4,0-0.7C142.7,57.5,142.3,57.5,141.8,57.5z"/>
			<path class="st6" d="M116.2,40.4c0.6,0,0.9,0.1,1,0.2c0.1,0.1,0.2,0.6-0.7,2.3c-0.4,0.7-1.1,1.7-1.8,2.9c-1,1.5-2.2,3.2-3,4.7
				c-0.4,0.9-0.5,1.5-0.3,1.9c0.2,0.3,0.4,0.4,0.7,0.4s0.7-0.2,1-0.6c3.2-3.4,5.8-5.6,8.7-5.6c1.4,0,2.1,0.6,2.1,1.8
				c0,2.4-2.7,6.1-5,6.1c-0.1,0-0.2,0-0.3,0c-0.9-0.1-1-0.5-1.2-1.3c-0.1-0.5-0.3-1-0.9-1.3c-0.3-0.1-0.5-0.2-0.8-0.2
				c-0.6,0-1.2,0.4-1.5,1c-0.5,0.9-0.3,2.1,0.4,3.1c2.3,3.3,5.8,4.9,8.3,5.8l0.6,0.2l0.2-0.6l2.5-7.4c0.2-0.5,0.2-0.9,0-1.3
				c-0.1-0.2-0.4-0.5-0.9-0.6c-0.3-0.1-0.4-0.3-0.3-0.5c0.2-1,2-2.9,4.9-2.9c0.4,0,0.7,0.1,0.7,0.2c0.1,0.2,0,0.9-0.9,2.1
				c-0.5,0.7-0.6,1.4-0.4,1.9c0.2,0.3,0.5,0.5,0.8,0.5c0.3,0,0.6-0.1,1-0.6c4.3-5.5,6.9-7.4,9.9-7.4c1,0,1.7,0.2,2.1,0.7
				c0.3,0.4,0.4,0.9,0.4,1.5c0,0.3,0,0.8,0.3,1.1c0.1,0.2,0.4,0.3,0.8,0.3c0.2,0,0.3,0,0.6-0.1c1-0.3,2-0.5,2.8-0.5
				c0.8,0,1.8,0.2,2.3,0.9s0.5,1.7,0,3.1c-0.3,1-1.4,2.3-2.3,3.4c-0.7,0.9-1.3,1.6-1.5,2.1c-0.1,0.2-0.2,0.7,0.1,1.1
				c0.2,0.3,0.5,0.4,0.9,0.4c0.2,0,0.5,0,0.7-0.1c0.2,0,0.4-0.1,0.6-0.1c0.3,0,0.4,0.1,0.4,0.1l0,0c0,0,0.1,0.3-0.3,1l-0.5,1h1.1
				c0.5,0,1,0.1,1.5,0.2l0.6,0.1l0.2-0.6l2.2-6.1c0.2-0.5,0.2-0.9,0-1.3c-0.1-0.2-0.4-0.5-0.9-0.7c-0.3-0.1-0.4-0.3-0.3-0.5
				c0.2-1,2.2-3,5-3c1.5,0,2.3,0.5,2.4,0.8c0.1,0.1,0,0.3-0.2,0.5c-1.1,1.2-1.9,2.8-2,3.2l-1.3,3.5c-0.4,1.1,0.4,1.7,0.8,1.9
				c0.3,0.2,0.5,1.1,0,2.7l-0.7,1.9l-0.1,0.4l0.3,0.3c3.2,3.4,5.4,9.3,7.6,20.7c0.2,1.2,0.9,1.6,1.5,1.6c0.6,0,1.1-0.5,1.4-1.2
				l1.1-3.2c0.6-1.7-0.8-2.1-1.3-2.3c-1.2-0.4-1.7-1.5-1.4-3.3l0.7-4.2c0.3-1.9,1.2-2.6,3.6-2.6c0.1,0,0.2,0,0.3,0
				c2.1,0.1,3.9,0.4,5.5,1c2.4,0.9,2.9,1.8,2.2,4l-0.8,2.4c-0.7,2.2-1.3,3-2,3c-1,0-1.7,0.5-2,1.4l-5.2,15c-0.6,1.7-2,2.3-3,2.3
				c-1.1,0-2.5-0.8-2.5-2.9c0-4.4-2.1-10.3-3-12.6c-0.3-0.7-0.9-1.2-1.6-1.2c-0.6,0-1.4,0.4-1.8,1.6c-0.3,1.1,0.3,1.7,0.8,2.2
				s0.8,0.8,0.6,1.6c-0.3,1.3-0.9,1.5-1.6,1.7c-0.7,0.2-1.5,0.4-1.8,1.7c-0.1,0.6,0.1,1,0.3,1.3c0.3,0.4,0.8,0.6,1.5,0.6
				c2.7,0,3.4,0.6,3.4,3.4V98c0,2.2-1.1,3.3-3.4,3.3h-10.9c-0.8,0-1.9-0.2-2.5-0.9c-0.6-0.8-0.4-1.9-0.1-2.7l0.6-1.8
				c0.8-2.5,2.1-2.7,3-2.7h1.5c1,0,2.1-0.6,2.1-1.7c0-1.2-0.7-1.7-1.2-2s-0.6-0.5-0.5-1.2c0.3-1.5,1-1.6,1.9-1.9
				c0.7-0.2,1.6-0.4,1.9-1.4l2.4-6.8c0.3-0.9,0.1-1.6-0.4-2.2c-2.7-3.3-6.1-5.7-9.6-7c-1.7-0.6-2.6-1.3-2.8-2.2
				c-0.2-0.9,0.4-1.9,1.5-2.9l0,0l0,0c0.9-1,0.8-1.6,0.6-2c-0.2-0.4-0.5-0.6-0.9-0.6c-0.6,0-1.3,0.4-2,1.3c-0.8,0.9-2.5,2.4-5,2.4
				c-0.9,0-1.6-0.3-2-0.9s-0.5-1.5-0.1-2.7c1.2-3.4,4.5-4.4,7.3-4.8c2.7-0.4,4.2-1.5,4.9-3.6c0.3-0.9,0.1-1.5-0.1-1.9
				c-0.3-0.4-0.8-0.7-1.4-0.7c-0.8,0-1.5,0.4-1.6,1.1c-0.4,1.9-3.1,2.9-4.8,2.9c-0.7,0-1.1-0.2-1.3-0.4c-0.1-0.1-0.1-0.3,0-0.5
				c0-0.1,0.1-0.3,0.2-0.4c0.2-0.5,0.4-1,0.1-1.4c-0.1-0.2-0.4-0.4-0.9-0.4c-1.3,0-3.2,2-4.6,3.7c-1.7,2.1-3.2,4.6-3.9,6.3l-0.3,0.7
				l-0.3,0.8l0.9,0.1c0.7,0.1,1.3,0.1,1.9,0.1s1,0.1,1.3,0.3c0.2,0.2,0.3,0.4,0.3,0.7c0,1.5-2.1,3.7-5,3.7c-3.8,0-8.9-1.2-13.9-10.9
				c-0.4-0.8-0.9-0.9-1.2-0.9c-0.9,0-1.3,1-1.6,1.7c-0.4,1,0.3,1.5,0.7,1.8c0.3,0.3,0.3,1.2-0.1,2.3c-0.6,2-1.6,2.8-3.6,2.8
				c-0.9,0-1.5-0.2-1.8-0.6c-0.5-0.6-0.3-1.5-0.2-2.2c0.7-2.9,2-5.9,3.2-8.7c1.1-2.6,2.1-5,2.6-7.1c0.3-1.2-0.3-1.7-0.9-1.9
				c-0.3-0.1-0.2-0.2-0.2-0.3c0.1-0.9,2-2.7,6.1-3.2C115.7,40.4,115.9,40.4,116.2,40.4L116.2,40.4 M139.5,60.7c1.5,0,3.4-0.8,3.8-2
				c0.2-0.4,0.1-0.8-0.1-1.1c-0.3-0.5-1-0.5-1.4-0.5c-2.3,0-3.8,1.2-3.8,2.3c0,0.4,0.2,0.7,0.5,0.9
				C138.7,60.6,139.1,60.7,139.5,60.7 M116.2,39.7c-0.3,0-0.6,0-0.9,0.1c-5.8,0.6-8,4.2-6,4.8c0.5,0.1,0.6,0.4,0.4,1.1
				c-1,4.3-4.4,10.1-5.8,15.8c-0.6,2.3,0.3,3.7,2.7,3.7c2.2,0,3.5-0.9,4.2-3.3c0.5-1.5,0.4-2.5-0.1-3c-0.5-0.3-0.8-0.5-0.5-1.1
				c0.3-0.9,0.7-1.3,1-1.3c0.2,0,0.4,0.2,0.6,0.6c4.9,9.5,10,11.3,14.5,11.3c5.2,0,7.9-6.2,3.4-6.2c-0.6,0-1.2,0-1.8-0.1l0.3-0.7
				c1.4-3.5,6.2-9.6,7.9-9.6c0.7,0,0.2,0.6,0,1.4c-0.4,1.2,0.5,1.8,1.9,1.8c2,0,4.9-1.3,5.4-3.4c0.1-0.3,0.5-0.5,0.9-0.5
				c0.6,0,1.3,0.5,0.9,1.7c-0.6,1.9-2.1,2.8-4.4,3.1c-3,0.5-6.5,1.6-7.8,5.3c-1,3,0.7,4.4,2.7,4.4c2.4,0,4.3-1.3,5.5-2.6
				c0.6-0.7,1.2-1,1.5-1c0.5,0,0.5,0.6-0.2,1.4c-2.4,2.1-2.9,4.8,1.5,6.3c3.1,1.1,6.4,3.2,9.3,6.8c0.4,0.5,0.5,1,0.3,1.6l-2.4,6.8
				c-0.5,1.6-3.2,0.2-3.9,3.4c-0.4,2.1,1.6,1.5,1.6,3.3c0,0.6-0.8,1-1.4,1H146c-1.7,0-2.9,1-3.7,3.2l-0.6,1.8
				c-0.9,2.8,0.3,4.5,3.2,4.5h10.9c2.6,0,4-1.4,4-3.9v-1.6c0-3.5-1.3-4-4-4c-0.9,0-1.2-0.4-1.1-1c0.4-1.9,2.6-0.2,3.4-3.3
				c0.5-2.1-1.8-2.3-1.4-3.8c0.2-0.8,0.7-1.1,1.1-1.1s0.8,0.3,1,0.8c1.3,3.2,3,8.5,3,12.4c0,2.4,1.5,3.6,3.2,3.6
				c1.5,0,3-0.9,3.6-2.8l5.2-15c0.2-0.6,0.6-1,1.3-1c1.3,0,1.9-1.2,2.7-3.4l0.8-2.4c0.9-2.6,0.1-3.9-2.6-4.8c-1.8-0.7-3.8-1-5.7-1
				c-0.1,0-0.2,0-0.4,0c-2.4,0-3.9,0.7-4.3,3.2l-0.7,4.2c-0.3,2.2,0.3,3.6,1.8,4.1c0.8,0.3,1.1,0.6,0.9,1.4l-1.1,3.2
				c-0.2,0.5-0.5,0.8-0.7,0.8c-0.3,0-0.7-0.3-0.8-1c-2-10.7-4.1-17.3-7.7-21l0.7-1.9c0.6-1.7,0.5-3-0.2-3.5
				c-0.5-0.3-0.8-0.6-0.6-1.1l1.3-3.5c0.1-0.4,0.9-1.9,1.9-3c1.1-1.3-0.3-2.4-2.7-2.4c-4.2,0-7.1,4-4.8,4.8c0.5,0.1,0.7,0.5,0.5,1.1
				l-2.2,6.1c-0.5-0.1-1.1-0.2-1.7-0.2c0.9-1.9,0-2.1-0.7-2.1c-0.4,0-1,0.2-1.4,0.2c-0.3,0-0.5-0.1-0.3-0.6c0.4-1,3.1-3.6,3.8-5.5
				c1.2-3.5-0.5-4.9-3-4.9c-0.9,0-1.9,0.2-3,0.5c-0.1,0-0.3,0.1-0.4,0.1c-0.3,0-0.4-0.2-0.4-0.7c0.2-1.6-0.6-2.9-3.1-2.9
				c-3.5,0-6.3,2.3-10.5,7.7c-0.2,0.2-0.4,0.3-0.5,0.3c-0.3,0-0.4-0.6,0.1-1.3c1.7-2.4,1.2-3.5-0.4-3.5c-4.3,0-7,4.1-4.7,4.8
				c0.5,0.1,0.7,0.4,0.5,1l-2.5,7.4c-3-1-6-2.8-8-5.5c-1.1-1.5-0.5-3,0.5-3c0.2,0,0.3,0,0.5,0.1c0.8,0.3,0.2,2.3,2.3,2.6
				c0.1,0,0.3,0,0.4,0c4.2,0,8.7-9.3,2.9-9.3c-3,0-5.8,2.2-9.2,5.8c-0.2,0.2-0.4,0.3-0.5,0.3c-0.3,0-0.3-0.5,0.2-1.4
				c1.3-2.6,4-6,4.8-7.6C118.4,40.7,118.1,39.7,116.2,39.7L116.2,39.7z M139.5,60c-1.7,0-0.7-2.2,2.3-2.2c0.7,0,1.1,0.1,0.9,0.6
				C142.4,59.3,140.7,60,139.5,60L139.5,60z"/>
		</g>
		<g>
			<path class="st5" d="M154,47.3c-0.9,0-1.6-0.3-2.1-0.9s-0.7-1.4-0.5-2.3c0.3-1.8,2-3.3,3.8-3.3c0.9,0,1.6,0.3,2.1,0.9
				c0.5,0.6,0.7,1.4,0.6,2.3C157.6,45.8,155.9,47.3,154,47.3z"/>
			<path class="st6" d="M155.2,41.1c0.8,0,1.4,0.3,1.9,0.8c0.4,0.5,0.6,1.2,0.5,2c-0.3,1.7-1.9,3-3.5,3c-0.8,0-1.4-0.3-1.9-0.8
				c-0.4-0.5-0.6-1.2-0.4-2C152,42.5,153.6,41.1,155.2,41.1 M155.2,40.4c-2,0-3.9,1.6-4.2,3.6c-0.4,2,1,3.6,3,3.6s3.9-1.6,4.2-3.6
				C158.6,42,157.3,40.4,155.2,40.4L155.2,40.4z"/>
		</g>
		<g>
			<path class="st5" d="M156.8,38.4c-1.3,0-2.3-0.4-2.9-1.3c-0.8-1.1-0.9-2.8-0.2-4.8c1.2-3.4,4.9-7,9.2-7c0.8,0,1.5,0.2,1.9,0.6
				s0.5,0.9,0.5,1.3c0,1.7-1.7,3.7-3.7,3.7c-0.4,0-0.8-0.1-1.1-0.2c-0.5-0.2-0.5-0.5-0.3-1.1c0.1-0.3,0.1-0.7-0.2-0.9
				c-0.2-0.1-0.4-0.2-0.6-0.2c-1,0-1.9,1.3-2.3,2.5c-0.4,1.1-0.2,1.8,0.1,2.2c0.4,0.5,1,0.8,1.8,0.8c0.5,0,1.1-0.1,1.7-0.4
				c0.9-0.3,1.5-0.5,1.9-0.5c0.2,0,0.4,0,0.4,0.1c0.1,0.1,0.2,0.5-0.4,1.7C161.5,37,159.3,38.4,156.8,38.4z"/>
			<path class="st6" d="M163,25.7c0.7,0,1.3,0.2,1.6,0.5c0.3,0.2,0.4,0.6,0.4,1c0,1.3-1.4,3.3-3.4,3.3c-0.3,0-0.7-0.1-1-0.2
				c-0.2-0.1-0.2-0.1-0.1-0.7c0.1-0.3,0.2-0.9-0.3-1.2c-0.2-0.2-0.5-0.2-0.8-0.2c-1.2,0-2.2,1.4-2.6,2.7c-0.5,1.3-0.2,2.1,0.1,2.5
				c0.4,0.6,1.2,0.9,2.1,0.9c0.6,0,1.2-0.1,1.8-0.4c1-0.4,1.6-0.5,1.8-0.5c0.1,0,0.1,0,0.1,0c0,0.1,0,0.5-0.5,1.3
				c-1,2-3.2,3.3-5.5,3.3c-1.2,0-2-0.4-2.6-1.1c-0.7-1-0.8-2.6-0.1-4.5C155.3,29.1,158.9,25.7,163,25.7 M163,25
				c-4.2,0-8.2,3.4-9.5,7.2s0.1,6.5,3.4,6.5c2.5,0,4.9-1.4,6.1-3.6c0.8-1.6,0.7-2.3-0.3-2.3c-0.5,0-1.2,0.2-2.1,0.5
				c-0.6,0.2-1.1,0.3-1.6,0.3c-1.3,0-2.2-0.8-1.6-2.5c0.4-1.3,1.2-2.3,2-2.3c0.2,0,0.3,0,0.4,0.1c0.3,0.2-0.6,1.5,0.6,2
				c0.4,0.2,0.9,0.2,1.3,0.2C165.5,31.2,167.8,25,163,25L163,25z"/>
		</g>
		<g>
			<path class="st5" d="M142.4,42.5c-5.2,0-5.6-3.7-5.6-4.8c0-2.7,1.9-5.6,4.7-5.6c0.3,0,0.5,0.1,0.6,0.2c0.3,0.3,0.2,1.1,0.2,1.8
				c-0.1,1-0.2,2.1,0.5,2.8c0.4,0.4,0.9,0.6,1.7,0.6c1.5,0,2.6-1.3,3-2.6c0.6-1.8-0.4-2.7-1.3-3.4l-0.2-0.2c-2.3-2-3-3.9-2.3-6.4
				c0.8-2.9,3.6-4.8,7-4.8c0.1,0,0.3,0,0.4,0c2.1,0.1,3.6,0.8,4.4,2c0.7,1.1,0.9,2.6,0.4,4c-0.6,1.9-2.2,3.3-3.7,3.3
				c-1.1,0-2.1-0.7-2.4-1.6c-0.3-0.8-0.1-1.7,0.7-2.4c0.7-0.7,0.7-1.2,0.6-1.5c-0.1-0.4-0.5-0.6-1-0.6c-1.6,0-2.4,1.2-2.5,1.8
				c-0.6,1.8,0.2,3.1,1.6,4.9c1.1,1.4,2.8,3.6,1.7,7C149.5,40.3,146.3,42.5,142.4,42.5z"/>
			<path class="st6" d="M150.6,20.3L150.6,20.3c0.1,0,0.3,0,0.4,0c1.9,0.1,3.4,0.7,4.1,1.9c0.7,1,0.8,2.4,0.3,3.7
				c-0.6,1.7-2,3-3.4,3c-0.9,0-1.8-0.6-2.1-1.4c-0.3-0.7,0-1.4,0.6-2c0.9-0.9,0.8-1.5,0.7-1.9c-0.2-0.5-0.7-0.8-1.3-0.8
				c-1.6,0-2.6,1.1-2.9,2c-0.7,2.1,0.5,3.7,1.7,5.3c1.1,1.4,2.7,3.4,1.6,6.6c-1.1,3.3-4.3,5.4-8,5.4c-3.3,0-5.3-1.7-5.3-4.5
				c0-2.5,1.8-5.3,4.3-5.3c0.2,0,0.3,0,0.3,0.1c0.2,0.2,0.1,1,0.1,1.5c-0.1,1-0.2,2.2,0.5,3c0.4,0.5,1.1,0.7,2,0.7
				c1.7,0,2.9-1.4,3.3-2.8c0.7-2.1-0.5-3.1-1.4-3.8l-0.2-0.2c-2.2-1.9-2.9-3.6-2.2-6.1C144.7,22.1,147.3,20.3,150.6,20.3
				 M150.6,19.6c-3.5,0-6.5,1.9-7.3,5c-0.7,2.4-0.2,4.5,2.4,6.8c1,0.8,2.1,1.5,1.4,3.2c-0.4,1.2-1.4,2.3-2.7,2.3
				c-3.9,0-0.1-5.3-2.9-5.3c-5.6,0-8,11.1,0.9,11.1c4,0,7.4-2.2,8.6-5.8s-0.6-5.8-1.7-7.3c-1.3-1.7-2.2-3-1.6-4.6
				c0.2-0.6,0.9-1.6,2.2-1.6c0.8,0,1.1,0.6,0.2,1.5c-2.2,2.1-0.2,4.6,1.9,4.6c1.7,0,3.4-1.6,4-3.5c1-2.9-0.3-6.3-5.1-6.5
				C150.9,19.6,150.8,19.6,150.6,19.6L150.6,19.6z"/>
		</g>
	</g>
</g>
</svg>
